{"glyphs":{"$":{"x_min":0,"x_max":329,"ha":329,"o":"m 242 239 q 252 218 256 202 q 261 186 260 164 q 260 143 244 120 q 228 96 198 71 q 172 50 144 44 q 142 36 141 28 q 140 22 140 19 q 140 13 137 7 q 136 7 135 5 q 134 3 133 2 q 127 -4 117 -4 q 107 -5 100 2 q 97 6 95 10 q 93 14 93 19 q 94 30 96 44 q 86 46 77 50 q 48 63 46 97 q 45 128 65 157 l 67 158 q 79 166 90 159 q 99 154 99 142 l 99 140 l 98 139 q 93 133 94 122 q 94 110 100 105 q 111 94 138 115 q 180 148 181 182 q 182 206 165 224 l 164 224 l 162 227 q 154 239 136 261 l 129 269 q 109 293 96 314 q 84 334 75 360 q 66 387 74 414 q 81 442 104 467 q 120 485 143 494 q 143 498 144 500 q 147 523 154 545 q 157 554 165 559 q 172 564 183 561 q 192 559 197 550 q 202 542 199 533 q 196 523 192 500 q 204 499 214 496 q 259 482 253 437 q 252 431 246 427 q 241 423 233 423 q 220 425 218 439 q 215 452 204 455 q 200 456 194 455 q 189 454 184 452 q 179 450 174 448 q 169 445 164 442 q 160 438 157 434 q 138 408 145 378 q 152 349 187 307 q 190 304 197 295 q 233 254 242 239 z"},"<":{"x_min":0,"x_max":266,"ha":266,"o":"m 226 388 q 235 373 230 355 q 226 341 211 330 q 210 330 197 321 q 186 313 163 296 q 140 280 128 272 q 131 271 140 266 q 150 260 156 257 q 198 234 211 225 q 230 212 219 193 q 215 185 205 182 q 195 180 188 185 q 180 190 161 201 q 132 218 73 249 q 73 249 72 249 q 70 249 70 249 q 55 253 45 269 q 35 283 40 301 q 44 315 60 326 q 66 330 73 336 q 89 347 120 370 q 152 392 168 403 q 181 412 200 407 q 215 404 226 388 z"},"'":{"x_min":0,"x_max":220,"ha":220,"o":"m 161 586 q 166 573 164 556 q 163 545 161 537 q 159 530 153 517 q 150 510 139 506 q 131 503 121 508 q 113 513 111 522 q 109 530 113 540 q 113 540 112 538 q 111 537 111 536 q 115 545 117 557 q 118 563 117 570 q 117 571 116 573 q 113 572 110 572 q 106 573 103 574 q 100 576 98 578 q 95 580 93 583 q 91 586 90 589 q 87 598 92 606 q 97 615 106 618 q 126 623 141 614 q 155 605 161 586 z"},"=":{"x_min":0,"x_max":392,"ha":392,"o":"m 99 319 q 85 318 76 328 q 67 338 66 351 q 65 364 75 374 q 85 383 99 384 q 202 389 305 386 q 319 385 328 376 q 337 367 338 353 q 338 340 328 330 q 318 320 305 320 q 202 324 99 319 z m 305 281 q 314 280 322 276 q 329 272 333 264 q 337 257 338 248 q 338 235 328 225 q 318 215 305 215 q 202 219 99 213 q 90 213 82 218 q 75 222 70 230 q 66 238 66 246 q 65 259 75 268 q 85 278 99 279 q 202 284 305 281 z"},"a":{"x_min":0,"x_max":515,"ha":515,"o":"m 561 296 q 568 292 571 284 q 574 276 570 268 q 538 208 444 106 q 350 4 308 1 q 281 -1 264 7 q 246 15 241 28 q 236 41 233 56 q 230 71 233 82 q 234 90 237 107 q 151 5 75 15 q 48 18 25 46 q 2 74 -10 116 q -22 157 -12 214 q -3 272 32 326 q 58 366 94 389 q 131 412 164 416 q 198 419 226 410 q 254 400 266 379 q 279 356 284 329 q 292 360 294 364 q 295 366 297 376 q 299 386 302 392 q 305 399 319 406 q 333 412 356 411 q 385 410 395 398 q 405 387 402 373 q 399 356 387 310 q 375 264 364 220 q 353 176 344 140 q 335 103 336 98 q 338 88 367 110 q 396 131 442 180 q 489 229 533 287 q 545 304 561 296 z m 99 86 q 116 75 163 106 q 210 138 255 198 q 261 225 267 252 q 264 257 263 269 q 259 307 242 328 q 226 349 203 346 q 177 342 152 313 q 126 284 108 240 q 90 197 88 145 q 85 93 99 86 z"},"L":{"x_min":0,"x_max":550,"ha":550,"o":"m 521 362 q 529 360 530 349 q 531 338 523 322 q 501 278 485 248 q 469 219 446 182 q 424 146 404 122 q 385 99 359 74 q 333 50 307 36 q 281 22 248 14 q 216 5 181 6 q 138 7 112 32 q 87 56 80 96 q 74 137 76 177 q 77 217 86 260 q 93 293 124 431 q 154 569 180 688 q 206 806 206 809 q 199 817 138 767 q 107 742 74 736 q 42 729 18 737 q -7 745 -27 760 q -47 775 -58 790 q -69 806 -71 815 q -73 824 -68 832 q -63 839 -54 841 q -48 842 -42 840 q -37 838 -34 834 q -30 829 -29 824 q -27 817 -16 805 q -5 793 12 783 q 30 773 56 776 q 82 779 107 800 q 200 880 248 875 q 297 871 319 847 q 341 823 330 764 q 327 744 306 658 q 285 573 265 485 q 245 397 228 306 q 212 216 214 160 q 215 103 239 105 q 259 108 271 110 q 283 113 312 126 q 340 140 363 162 q 386 184 416 229 q 447 274 473 336 q 489 372 521 362 z"},"3":{"x_min":0,"x_max":381,"ha":381,"o":"m 331 418 q 330 417 325 405 q 320 393 319 391 q 318 389 314 379 q 309 369 306 366 q 304 363 299 355 q 294 347 290 343 q 286 339 280 333 q 274 327 267 323 q 260 319 252 315 q 344 262 323 101 q 318 85 313 72 q 308 60 298 44 q 287 28 274 16 q 262 4 242 -6 q 221 -17 197 -21 q 173 -25 138 -23 q 103 -21 63 -11 q 44 -6 47 21 q 49 45 66 47 l 75 46 q 127 25 177 52 q 227 78 235 124 q 244 163 239 190 q 234 217 226 234 q 217 250 202 258 q 188 267 178 270 q 168 273 159 273 q 121 273 112 303 q 110 309 110 314 q 110 318 112 321 q 113 324 116 326 q 118 329 122 330 q 125 332 128 333 q 132 334 136 336 q 139 337 142 338 q 167 351 188 366 q 208 380 225 399 q 242 418 244 437 q 247 456 237 478 q 221 506 158 480 q 131 469 120 481 q 115 490 118 500 q 120 510 126 518 q 140 536 169 546 q 198 555 224 554 q 249 553 269 548 q 308 536 328 496 q 348 457 331 418 z"},"J":{"x_min":0,"x_max":371,"ha":371,"o":"m 312 365 q 347 376 358 357 q 365 343 346 335 q 304 321 262 304 q 243 216 242 214 q 229 154 207 106 q 185 59 162 32 q 138 4 111 -14 q 84 -31 62 -37 q 41 -43 23 -42 q -8 -40 -28 -26 q -48 -12 -55 8 q -62 28 -64 50 q -67 72 -63 91 q -49 202 152 300 q 254 791 254 800 q 248 808 186 758 q 155 733 123 726 q 91 720 66 728 q 42 736 22 751 q 1 766 -10 782 q -21 797 -23 807 q -24 812 -22 818 q -20 823 -16 827 q -12 831 -6 832 q 3 834 10 828 q 18 823 20 815 q 21 810 28 801 q 35 792 48 782 q 61 773 77 768 q 93 763 114 768 q 135 774 156 791 q 248 871 296 867 q 342 862 356 842 q 369 821 358 759 q 344 687 272 351 q 294 359 312 365 z m 29 31 q 80 63 100 108 q 120 152 141 248 q -8 166 -18 80 q -22 51 -6 35 q 11 19 29 31 z"},"V":{"x_min":0,"x_max":532,"ha":532,"o":"m 277 16 q 276 16 274 12 q 271 7 270 5 q 268 3 264 0 q 259 -2 253 -2 q 253 -2 242 -4 q 230 -6 220 -6 q 209 -5 197 -2 q 185 0 178 10 q 170 21 170 39 q 170 69 168 183 q 167 297 166 418 q 164 540 162 638 q 160 735 160 737 q 150 729 136 722 q 123 714 96 706 q 68 699 46 705 q 0 716 -22 792 q -25 801 -20 809 q -16 817 -8 820 q 1 822 9 818 q 17 813 19 805 q 35 753 56 747 q 68 744 89 758 q 110 771 124 784 q 137 796 159 818 q 188 848 208 858 q 229 867 249 858 q 265 850 270 836 q 275 822 274 793 q 270 672 274 400 q 278 127 278 96 q 310 147 343 200 q 376 254 423 338 q 470 423 507 500 q 544 578 576 666 q 608 753 619 823 q 620 829 624 834 q 627 838 632 840 q 638 842 644 841 q 653 839 658 832 q 663 825 662 816 q 647 727 602 612 q 557 497 509 404 q 461 312 402 214 q 343 116 318 78 q 293 40 277 16 z"},"\"":{"x_min":0,"x_max":272,"ha":272,"o":"m 230 535 q 235 521 233 505 q 232 493 230 486 q 228 478 222 465 q 219 458 208 454 q 200 452 190 457 q 182 461 179 471 q 177 478 182 489 q 181 488 180 486 q 180 485 180 484 q 184 494 186 505 q 187 511 186 518 q 186 519 185 521 q 179 520 173 522 q 174 513 173 505 q 172 493 170 485 q 168 478 162 465 q 159 458 148 454 q 140 452 130 457 q 122 461 120 471 q 118 478 122 489 q 121 486 120 484 q 124 494 126 505 q 127 511 126 518 q 126 519 125 521 q 117 519 110 524 q 102 529 99 537 q 96 546 101 555 q 106 564 115 566 q 135 572 150 562 q 155 560 160 553 q 165 563 175 566 q 195 572 210 562 q 224 553 230 535 z"},"7":{"x_min":0,"x_max":365,"ha":365,"o":"m 266 366 q 278 366 288 363 q 299 360 306 352 q 314 345 314 334 q 314 318 300 308 q 285 298 254 300 q 253 300 244 300 q 171 46 169 18 q 167 -13 124 -10 q 105 -9 96 0 q 86 9 89 23 q 100 70 124 158 q 149 246 158 282 q 159 286 160 292 q 162 297 163 299 q 147 298 135 296 q 111 291 99 300 q 87 309 93 336 q 96 351 102 357 q 108 363 123 363 q 141 363 180 364 q 184 378 192 404 q 199 429 206 452 q 212 474 218 495 q 212 494 164 494 q 117 494 99 491 q 75 486 62 495 q 50 504 56 531 q 59 541 62 546 q 64 552 70 555 q 76 558 87 558 q 109 558 158 560 q 207 561 230 561 q 235 561 243 562 q 251 562 256 562 q 260 562 266 562 q 272 561 276 560 q 281 559 286 557 q 294 553 300 537 q 307 521 304 510 q 296 481 263 366 q 263 366 264 366 q 266 366 266 366 z"},"S":{"x_min":0,"x_max":543,"ha":543,"o":"m 611 346 q 615 337 609 326 q 603 314 595 315 q 521 321 416 277 q 436 230 444 193 q 452 156 449 110 q 446 65 418 17 q 391 -31 338 -82 q 231 -186 123 -128 q 76 -102 73 -36 q 71 -5 78 23 q 85 51 106 88 q 126 126 172 170 q 218 214 288 262 q 274 288 225 359 q 196 399 176 433 q 157 467 140 514 q 122 561 119 602 q 116 644 130 693 q 144 742 178 787 q 199 814 225 831 q 251 848 278 854 q 304 859 328 858 q 351 856 370 848 q 389 841 403 829 q 417 817 425 802 q 433 787 436 769 q 438 751 436 731 q 435 725 432 720 q 428 716 423 714 q 418 711 412 712 q 396 713 393 736 q 388 764 370 776 q 353 787 332 782 q 312 777 292 762 q 271 748 259 730 q 232 686 231 638 q 230 589 251 539 q 272 489 316 427 q 324 416 341 394 q 358 371 371 352 q 384 334 393 317 q 503 359 578 355 q 582 355 588 354 q 593 354 598 354 q 602 354 606 352 q 610 350 611 346 z m 243 -23 q 300 21 319 84 q 338 147 312 220 q 248 176 207 137 q 166 98 148 66 q 131 35 126 11 q 122 -13 125 -38 q 128 -56 142 -62 q 155 -69 182 -60 q 209 -50 243 -23 z"},"}":{"x_min":0,"x_max":376,"ha":376,"o":"m 283 280 q 288 273 288 268 q 289 262 284 256 q 280 251 276 248 q 272 245 264 240 q 229 217 220 190 q 210 164 220 122 q 230 83 232 55 q 235 6 176 -9 q 174 -10 170 -10 q 166 -9 162 -7 q 158 -5 154 -2 q 150 0 147 4 q 144 7 143 10 q 140 16 144 28 q 148 41 154 44 q 180 57 186 76 q 191 95 181 121 q 154 197 189 249 q 198 261 193 267 q 175 288 169 314 q 163 340 164 358 q 166 377 172 410 q 178 442 180 456 q 180 456 180 458 q 180 459 180 460 q 186 503 174 514 q 161 525 124 506 q 119 504 108 506 q 98 507 97 509 q 93 537 100 546 q 103 549 108 552 q 113 554 116 556 q 120 557 124 558 q 129 559 130 560 q 178 559 203 536 q 228 514 225 474 q 222 418 207 338 q 203 315 211 306 q 219 296 242 297 q 252 298 264 293 q 277 288 283 280 z"},"Z":{"x_min":0,"x_max":488,"ha":488,"o":"m 41 1 q 20 -18 -43 15 q -55 21 -61 26 q -67 30 -74 36 q -80 43 -81 50 q -82 57 -80 68 q -77 78 -70 91 q -26 168 90 322 q 205 477 298 593 l 391 708 q 389 708 384 708 q 367 708 358 708 q 349 709 334 712 q 318 715 301 721 q 284 727 263 738 q 254 742 246 748 q 237 753 235 754 q 233 754 230 755 q 226 756 223 752 q 220 747 216 743 q 211 739 201 730 q 191 720 178 709 q 155 694 114 698 q 73 703 47 718 q 25 732 14 762 q 3 792 3 822 q 3 831 10 838 q 16 844 25 844 q 34 844 40 838 q 46 831 46 822 q 46 809 56 792 q 67 776 83 767 q 109 751 136 766 q 154 775 175 810 q 180 818 183 822 q 186 827 192 835 q 199 843 204 847 q 210 851 218 856 q 226 861 235 862 q 244 863 256 862 q 267 862 281 858 q 295 853 311 845 q 355 823 430 818 q 505 813 552 816 q 598 820 606 822 q 621 826 630 814 q 638 801 629 788 l 120 105 q 169 127 219 124 q 269 122 307 94 q 338 72 375 63 q 412 54 432 56 q 451 57 467 61 q 500 69 505 79 q 505 88 512 94 q 518 100 527 100 q 536 100 542 93 q 548 86 548 77 q 548 49 512 31 q 486 17 450 10 q 415 3 366 10 q 316 17 276 46 q 241 72 162 57 q 84 42 41 1 z"},"x":{"x_min":0,"x_max":362,"ha":362,"o":"m 405 329 q 422 326 419 308 q 414 282 386 230 q 359 177 315 123 q 271 69 232 56 q 222 53 213 53 q 168 50 132 87 q 79 28 28 12 q 25 10 22 10 q 6 10 1 26 q -2 34 2 42 q 6 50 15 53 q 59 67 106 122 q 93 143 82 172 q 70 201 63 226 q 56 252 50 282 q 43 311 40 330 q 37 350 34 370 q 32 389 31 391 q 30 400 34 408 q 37 415 43 420 q 49 424 58 428 q 67 431 72 432 q 76 434 82 435 q 90 438 108 436 q 125 433 127 425 q 130 410 146 331 q 162 252 172 216 q 181 231 190 248 q 199 264 206 279 q 214 294 222 308 q 229 323 234 336 q 240 349 246 361 q 251 373 254 382 q 258 392 261 398 q 264 405 266 409 q 267 413 267 413 q 270 421 278 424 q 287 427 296 424 q 304 420 307 412 q 310 403 306 395 q 306 394 301 382 q 296 370 290 354 q 283 338 272 314 q 261 291 249 267 q 237 243 221 214 q 205 186 188 162 q 197 138 206 127 q 216 116 225 119 q 256 131 302 192 q 347 252 380 315 q 389 333 405 329 z"},")":{"x_min":0,"x_max":284,"ha":284,"o":"m 189 472 q 268 281 172 59 q 167 49 160 39 q 154 29 142 15 q 130 1 127 -3 q 111 -20 96 -18 q 82 -17 70 -2 q 64 4 64 18 q 64 33 69 41 q 192 206 149 409 q 134 479 81 527 q 68 541 80 552 q 93 562 104 558 q 161 538 189 472 z"},"&":{"x_min":0,"x_max":351,"ha":351,"o":"m 317 274 q 325 287 337 287 q 349 287 358 275 q 366 263 360 249 q 337 197 295 144 q 339 89 352 54 q 360 33 338 26 q 317 19 306 37 l 304 41 q 294 68 261 105 q 228 71 194 44 q 165 22 137 10 q 109 -2 76 2 q 43 5 17 32 q -5 56 -9 90 q -13 124 1 166 q 15 208 32 242 q 48 275 74 320 q 73 322 68 328 q 64 333 62 336 q 16 404 19 473 q 20 498 34 518 q 47 538 66 550 q 86 561 110 567 q 169 582 206 552 q 244 523 245 470 q 246 411 178 281 q 191 266 197 259 q 207 247 228 222 q 250 197 262 183 q 296 226 317 274 z m 106 377 q 107 376 107 376 q 122 403 130 420 q 139 437 144 454 q 149 470 144 478 q 140 485 126 486 q 106 486 98 464 q 90 443 94 418 q 97 392 106 377 z m 194 117 q 208 128 225 143 q 211 158 203 167 q 193 178 150 227 q 118 167 106 134 q 93 102 104 90 q 111 81 126 84 q 142 88 159 96 q 176 105 194 117 z"},"_":{"x_min":0,"x_max":677,"ha":677,"o":"m 494 63 q 544 66 564 19 q 509 11 507 11 q 467 9 356 2 q 244 -4 183 -8 q 164 -9 152 -3 q 140 3 135 15 q 130 27 130 47 q 429 60 494 63 z"},"v":{"x_min":0,"x_max":328,"ha":328,"o":"m 379 299 q 361 275 330 264 q 298 252 266 254 q 260 242 253 227 q 236 189 218 156 q 200 122 176 85 q 152 48 124 26 q 97 3 71 0 q 69 0 66 0 q 25 0 7 37 q -13 78 -14 152 q -15 225 -6 284 q 2 343 13 383 q 22 414 40 423 q 57 432 90 431 q 97 430 102 429 q 107 428 110 426 q 114 423 116 421 q 119 419 120 414 q 122 409 122 406 q 123 404 123 398 q 123 392 122 390 q 122 387 122 380 q 121 372 120 370 q 119 355 110 312 q 101 268 94 230 q 86 192 82 148 q 78 104 86 89 q 103 47 172 175 q 193 213 219 267 q 173 291 183 343 q 187 367 202 384 q 217 400 237 402 q 270 405 284 371 q 295 344 282 297 q 325 300 345 325 q 350 333 359 334 q 368 335 375 330 q 382 324 384 315 q 385 306 379 299 z m 226 335 q 222 316 237 306 q 238 308 240 311 q 241 314 242 316 q 249 343 244 354 q 242 358 241 358 q 240 358 237 356 q 234 354 230 348 q 227 343 226 335 z"},"O":{"x_min":0,"x_max":621,"ha":621,"o":"m 600 767 q 638 711 637 614 q 636 518 604 404 q 572 291 521 199 q 471 107 412 59 q 353 11 291 11 q 289 11 285 11 q 281 11 279 11 q 154 12 114 142 q 92 213 90 299 q 89 385 106 469 q 122 553 156 632 q 191 710 236 767 q 282 824 344 854 q 405 884 472 874 q 488 872 499 859 q 510 846 513 828 q 515 816 514 805 q 568 810 600 767 z m 474 225 q 551 366 579 519 q 607 672 564 735 q 540 767 508 760 q 503 758 501 759 q 488 738 450 709 q 443 704 434 705 q 425 706 420 713 q 414 720 416 729 q 417 738 424 744 q 451 764 458 774 q 464 785 461 798 q 461 804 453 808 q 445 811 436 811 q 386 798 338 714 q 289 630 258 498 q 228 366 231 232 q 231 206 233 189 q 235 172 240 150 q 246 128 258 116 q 271 104 290 103 q 402 95 474 225 z"},"(":{"x_min":0,"x_max":298,"ha":298,"o":"m 224 543 q 229 536 229 522 q 229 507 224 499 q 101 334 144 131 q 159 61 212 13 q 225 0 212 -11 q 200 -22 189 -18 q 132 2 104 69 q 25 259 121 481 q 126 492 132 502 q 139 511 151 526 q 163 540 166 544 q 182 561 196 559 q 211 557 224 543 z"},"C":{"x_min":0,"x_max":696,"ha":696,"o":"m 677 325 q 628 254 586 200 q 545 146 512 110 q 480 74 450 50 q 420 27 398 15 q 377 3 354 0 q 331 -4 315 -3 q 299 -2 277 3 q 217 17 174 72 q 131 128 114 206 q 97 283 97 374 q 97 464 126 552 q 154 639 200 710 q 245 781 322 824 q 398 867 492 864 q 524 864 552 848 q 580 831 590 799 q 597 777 578 760 q 560 744 544 757 q 543 758 536 763 q 530 768 528 769 q 527 770 522 774 q 516 778 514 778 q 511 779 506 782 q 500 784 496 784 q 492 783 486 783 q 480 783 474 782 q 468 780 461 777 q 390 746 342 667 q 294 588 278 494 q 261 401 266 305 q 272 209 300 140 q 307 123 326 116 q 344 108 376 116 q 407 124 446 148 q 484 173 536 225 q 588 277 642 351 q 647 358 656 360 q 665 361 672 356 q 680 350 681 341 q 682 332 677 325 z"},"W":{"x_min":0,"x_max":840,"ha":840,"o":"m 940 754 q 933 687 886 564 q 840 440 780 318 q 719 196 650 100 q 581 5 534 -8 q 526 -10 518 -10 q 505 -10 488 -4 q 470 2 464 7 q 413 54 423 209 q 407 177 389 149 q 371 121 356 100 q 341 80 326 63 q 311 46 299 34 q 287 23 277 15 q 267 7 261 4 q 255 0 252 0 q 251 0 243 -1 q 235 -2 226 -3 q 218 -4 207 -2 q 196 -1 188 3 q 180 7 174 16 q 169 26 169 41 q 169 81 166 253 q 164 425 162 580 q 160 736 159 739 q 149 731 136 724 q 122 716 94 709 q 67 702 45 707 q -1 719 -23 795 q -26 803 -22 811 q -17 819 -8 822 q 0 824 8 820 q 16 816 18 807 q 34 755 55 750 q 67 747 88 760 q 109 773 122 786 q 136 798 158 821 q 187 850 208 860 q 228 869 247 860 q 264 853 269 838 q 274 824 273 796 q 269 674 273 402 q 277 129 277 99 q 337 160 378 234 q 420 308 464 415 q 468 424 474 429 q 481 439 500 441 q 519 443 535 437 q 551 431 550 420 q 549 400 544 356 q 538 311 533 269 q 528 227 524 186 q 521 144 523 118 q 525 93 534 92 q 546 92 577 127 q 608 162 646 219 q 684 276 726 350 q 769 424 804 496 q 840 569 866 640 q 892 711 897 759 q 898 768 905 774 q 912 779 921 778 q 930 777 936 770 q 941 763 940 754 z"},"A":{"x_min":0,"x_max":768,"ha":768,"o":"m 613 893 q 613 893 615 893 q 623 892 629 892 q 635 891 644 888 q 653 886 657 880 q 661 875 659 867 q 602 627 571 372 q 580 378 592 386 q 599 391 608 390 q 617 388 622 381 q 628 374 626 365 q 625 356 617 351 q 589 330 565 321 q 558 258 552 194 q 547 130 545 92 q 543 55 541 15 q 539 -25 539 -31 q 537 -62 550 -63 q 567 -66 601 -7 q 606 1 615 3 q 624 5 632 0 q 639 -5 640 -14 q 642 -23 638 -30 q 562 -147 513 -147 q 504 -147 495 -144 q 414 -110 470 332 q 452 343 433 361 q 418 377 393 381 q 315 224 244 121 q 174 18 119 2 q 67 -12 37 19 q 12 45 7 100 q 2 155 14 220 q 26 285 36 325 q 46 365 56 398 q 59 406 67 410 q 75 415 84 412 q 92 409 96 401 q 101 393 98 385 q 84 342 73 293 q 62 244 54 194 q 47 144 50 104 q 53 64 68 49 q 80 37 107 44 q 190 67 342 379 q 298 370 268 352 q 260 348 251 350 q 242 353 238 361 q 234 369 236 378 q 238 386 246 390 q 304 423 364 426 q 456 621 546 860 q 546 861 548 866 q 549 871 550 872 q 551 874 554 879 q 558 884 562 886 q 566 887 574 890 q 581 894 590 893 q 599 892 613 893 z m 464 392 q 467 389 477 381 q 495 512 523 671 q 466 534 412 421 q 443 413 464 392 z"},"f":{"x_min":0,"x_max":330,"ha":330,"o":"m 347 311 q 353 318 362 320 q 371 321 378 316 q 385 310 386 301 q 387 292 382 285 q 344 236 296 218 q 247 199 199 202 q 212 176 222 148 q 232 120 238 78 q 243 36 238 -5 q 232 -46 210 -96 q 187 -145 147 -191 q 97 -247 61 -247 q 47 -247 35 -239 l 34 -238 l 33 -237 q -1 -220 -2 -172 q -6 -29 4 94 q 13 218 34 313 q 54 408 74 470 q 93 533 119 601 q 142 659 172 706 q 201 754 228 782 q 254 811 282 832 q 311 852 332 860 q 352 869 370 871 q 394 875 407 856 q 415 844 416 824 q 417 804 409 776 q 401 747 391 718 q 381 690 360 648 q 340 606 322 572 q 305 538 276 486 q 246 433 226 398 q 205 362 171 303 q 169 293 161 254 q 161 254 162 254 q 167 252 176 250 q 185 247 208 246 q 230 244 252 248 q 273 252 300 268 q 326 284 347 311 z m 241 618 q 205 527 172 388 q 377 754 371 827 q 352 818 306 742 q 259 665 241 618 z m 114 -162 q 154 -117 174 -68 q 194 -20 196 18 q 199 56 191 95 q 183 134 173 157 q 163 180 151 200 q 84 -147 88 -188 q 100 -178 114 -162 z"},"Q":{"x_min":0,"x_max":627,"ha":627,"o":"m 517 184 q 430 27 323 1 q 333 -7 347 -9 q 361 -11 372 -10 q 384 -9 398 -5 q 411 -1 416 1 q 421 3 424 4 q 432 8 440 5 q 449 2 452 -6 q 456 -14 454 -22 q 451 -31 443 -35 q 437 -38 429 -41 q 421 -44 400 -50 q 379 -55 360 -55 q 342 -55 320 -47 q 298 -39 283 -21 q 277 -13 266 -12 q 253 -11 233 -18 q 213 -26 196 -36 q 180 -47 167 -57 q 161 -62 154 -62 q 143 -62 137 -55 q 131 -48 132 -39 q 133 -30 140 -24 q 167 -2 198 14 q 135 45 109 128 q 87 198 86 284 q 85 371 102 455 q 118 539 152 617 q 186 695 232 752 q 278 810 340 840 q 401 870 467 860 q 483 858 494 844 q 505 831 508 813 q 510 802 509 790 q 563 796 596 753 q 634 697 632 600 q 631 503 599 390 q 567 277 517 184 z m 285 88 q 398 81 469 210 q 546 351 574 504 q 603 658 559 720 q 535 752 503 745 q 498 744 496 744 q 483 724 446 695 q 439 689 430 690 q 421 692 416 699 q 410 706 411 715 q 412 724 419 729 q 446 750 452 760 q 459 770 457 784 q 456 789 448 792 q 441 796 431 796 q 382 784 333 700 q 284 615 254 484 q 223 352 226 217 q 226 203 226 193 q 227 183 228 169 q 230 155 232 145 q 235 135 240 124 q 244 113 250 106 q 256 99 265 94 q 274 89 285 88 z"},"w":{"x_min":0,"x_max":566,"ha":566,"o":"m 630 298 q 612 275 580 264 q 549 252 517 253 q 511 241 504 227 q 491 197 478 170 q 464 144 444 112 q 425 81 406 58 q 388 34 366 18 q 343 2 322 0 q 320 -1 316 -1 q 276 -1 258 37 q 237 79 236 158 q 140 -4 67 0 q 65 -1 61 -1 q 21 -1 2 37 q -17 77 -18 151 q -19 225 -10 284 q -2 342 9 383 q 24 436 91 437 q 100 437 104 437 q 109 437 116 436 q 123 434 125 430 q 127 427 131 420 q 135 414 134 404 q 132 394 131 380 q 129 369 112 284 q 95 198 84 132 q 74 66 79 58 q 85 47 120 85 q 154 123 192 186 q 231 249 247 299 q 255 349 264 383 q 273 413 290 422 q 307 431 341 430 q 348 430 353 429 q 358 428 362 425 q 365 422 368 420 q 370 418 372 414 q 373 409 374 406 q 374 404 374 398 q 374 391 374 388 q 373 386 372 378 q 371 371 371 369 q 370 355 360 311 q 351 267 344 230 q 337 192 333 148 q 329 104 337 88 q 354 46 423 174 q 444 212 469 266 q 424 291 434 343 q 438 366 453 382 q 468 399 488 401 q 520 405 535 371 q 546 343 533 297 q 576 300 596 325 q 601 332 610 333 q 619 334 626 328 q 633 323 634 314 q 636 305 630 298 z m 476 335 q 473 315 488 305 q 488 306 493 315 l 493 316 q 500 342 495 354 l 492 358 q 490 358 488 356 q 485 353 482 348 q 478 342 476 335 z"},"-":{"x_min":0,"x_max":368,"ha":368,"o":"m 281 337 q 294 336 304 327 q 313 318 313 304 q 314 292 304 282 q 293 271 281 272 q 177 275 74 270 q 65 269 58 274 q 50 279 46 286 q 42 294 42 303 q 41 316 51 325 q 61 334 74 335 q 178 341 281 337 z"},"E":{"x_min":0,"x_max":591,"ha":591,"o":"m 572 322 q 561 309 540 280 q 518 250 498 222 q 478 194 450 159 q 421 124 394 96 q 366 67 333 42 q 300 18 268 5 q 237 -8 202 -8 q 166 -7 133 12 q 87 37 68 96 q 50 154 67 214 q 77 252 98 286 q 119 319 140 341 q 160 363 192 386 q 225 410 244 420 q 263 431 295 449 q 303 453 307 455 q 249 471 210 498 q 170 526 154 559 q 137 592 134 629 q 132 666 145 702 q 158 737 181 769 q 204 801 234 824 q 265 847 302 859 q 339 871 375 867 q 455 859 490 795 q 494 787 492 778 q 489 770 481 766 q 473 761 464 764 q 456 766 452 774 q 446 784 438 789 q 430 794 424 796 q 418 798 406 796 q 394 794 390 793 q 385 792 371 788 q 337 777 309 754 q 281 730 268 696 q 255 663 258 628 q 261 592 292 554 q 324 516 382 487 q 383 487 386 486 q 388 484 390 484 q 391 483 393 482 q 395 480 396 479 q 398 478 399 476 q 400 475 401 473 q 402 471 402 469 q 405 451 388 445 q 385 444 352 412 q 318 379 271 324 q 224 268 201 225 q 180 186 186 133 q 192 73 238 76 q 330 82 538 349 q 544 356 553 357 q 562 358 569 352 q 576 346 576 337 q 577 328 572 322 z"},"s":{"x_min":0,"x_max":216,"ha":216,"o":"m 256 326 q 269 329 274 322 q 279 314 274 301 q 269 285 234 252 q 200 220 161 201 q 177 174 173 131 q 169 88 142 50 q 121 21 80 9 q 38 -3 9 10 q -4 16 -12 32 q -19 48 -18 70 q -18 93 0 123 q 17 153 51 182 q 50 184 38 202 q 27 219 16 237 q 6 255 -4 278 q -14 302 -15 320 q -17 357 2 388 q 20 420 47 430 q 97 449 124 407 q 130 399 130 389 q 131 379 124 372 q 109 360 97 374 q 95 376 89 377 q 83 378 78 375 q 70 363 72 350 q 73 336 84 316 q 94 297 105 282 q 116 267 127 253 q 138 239 139 235 q 174 258 200 280 q 225 303 236 314 q 247 325 256 326 z m 34 59 q 60 59 70 91 q 80 123 69 149 q 32 121 23 84 q 18 61 34 59 z"},">":{"x_min":0,"x_max":279,"ha":279,"o":"m 239 301 q 244 285 235 268 q 227 254 210 249 q 209 249 205 248 q 170 229 147 217 q 105 193 92 184 q 84 179 74 182 q 65 185 60 193 q 55 201 58 210 q 61 219 69 224 q 77 230 95 241 q 103 245 151 272 q 138 281 110 300 q 83 320 69 330 q 54 340 50 355 q 45 370 54 387 q 62 402 79 407 q 98 412 111 402 q 113 401 125 393 q 141 382 172 360 q 204 337 220 326 q 234 315 239 301 z"},"l":{"x_min":0,"x_max":281,"ha":281,"o":"m 303 323 q 309 330 318 331 q 327 332 334 327 q 341 322 342 313 q 343 304 338 297 q 338 297 328 279 q 318 261 302 236 q 287 212 266 182 q 244 152 214 119 q 183 86 151 60 q 97 16 54 16 q 48 16 39 16 q 38 16 37 16 q 36 16 35 16 q 32 16 27 18 q 8 23 -2 38 q -17 56 -19 85 q -32 241 -13 360 q 6 479 54 601 q 83 673 120 728 q 156 782 192 811 q 227 840 254 854 q 282 868 305 871 q 329 875 342 856 q 349 845 351 829 q 353 813 346 788 q 340 764 333 742 q 326 721 308 684 q 290 648 277 623 q 264 598 238 551 q 211 504 195 478 q 179 451 147 397 q 140 384 136 377 q 132 370 126 359 q 119 348 113 338 q 107 328 102 319 q 80 183 75 128 q 74 117 74 114 q 73 92 82 90 q 97 89 139 123 q 156 138 172 154 q 189 170 203 185 q 217 200 230 215 q 242 230 252 244 q 261 257 270 269 q 278 281 284 290 q 290 300 294 307 q 299 314 301 318 q 303 323 303 323 z m 176 618 q 133 509 109 406 q 199 567 246 666 q 294 764 301 788 q 308 811 306 827 q 287 818 240 742 q 194 665 176 618 z"},"8":{"x_min":0,"x_max":328,"ha":328,"o":"m 234 294 q 241 284 244 273 q 262 226 266 182 q 269 137 260 104 q 252 70 236 44 q 219 18 196 3 q 172 -12 145 -14 q 113 -18 86 14 q 58 46 49 101 q 40 156 64 230 q 77 267 107 290 q 78 321 71 372 q 64 423 85 496 q 95 523 114 543 q 134 563 154 570 q 173 577 192 580 q 212 583 222 577 l 222 577 q 222 577 223 576 q 224 576 224 576 q 224 576 225 576 q 226 576 226 576 q 226 575 227 575 q 228 574 230 572 q 241 565 245 556 q 252 546 255 537 q 282 454 274 394 q 266 335 231 299 q 232 298 234 294 z m 145 443 q 142 417 142 390 q 143 364 152 345 q 160 326 175 328 q 197 332 216 356 q 236 381 240 421 q 242 441 238 465 q 234 489 229 504 l 223 519 q 221 523 218 530 q 195 540 174 519 q 153 498 145 443 z m 229 151 q 230 166 228 180 q 227 194 224 208 q 221 221 218 231 q 215 241 212 248 q 210 254 210 254 q 208 259 204 266 q 180 277 158 254 q 136 232 127 174 q 124 147 124 118 q 125 90 134 70 q 143 50 159 53 q 183 57 204 83 q 224 109 229 151 z"},"\\":{"x_min":0,"x_max":356,"ha":356,"o":"m 288 32 q 294 13 280 1 q 267 -11 249 -8 q 231 -4 225 15 l 203 80 q 151 243 56 536 q 50 555 63 567 q 76 579 94 576 q 113 572 119 553 q 133 509 140 488 q 192 327 288 32 z"},"e":{"x_min":0,"x_max":343,"ha":343,"o":"m 381 321 q 394 319 397 308 q 400 298 395 284 q 390 269 379 252 q 291 112 214 53 q 136 -6 72 1 q 47 4 23 24 q -1 43 -17 77 q -33 111 -38 152 q -43 193 -28 244 q -14 294 20 341 q 45 375 73 397 q 101 419 124 427 q 146 435 167 436 q 188 437 200 434 q 213 430 220 425 q 244 406 252 382 q 252 382 254 378 q 255 374 255 373 q 256 368 256 363 q 255 340 236 309 q 199 250 96 203 q 86 161 88 122 q 89 84 101 77 q 129 63 207 122 q 285 181 345 280 q 349 287 354 296 q 358 304 360 308 q 362 311 366 315 q 369 319 372 320 q 376 321 381 321 z m 119 264 q 177 297 199 332 q 211 352 212 363 q 208 362 202 359 q 156 335 119 264 z"},"b":{"x_min":0,"x_max":439,"ha":439,"o":"m 493 338 q 500 332 502 322 q 505 312 494 306 q 452 290 409 270 q 402 185 348 102 q 317 55 265 36 q 213 18 171 30 q 129 41 121 72 q 95 164 291 264 q 298 330 274 340 q 266 343 256 343 q 245 343 232 339 q 218 335 202 324 q 187 313 171 296 q 155 279 137 251 q 119 223 102 186 l 97 60 q 96 60 94 52 q 92 44 89 38 q 86 31 80 23 q 75 15 66 10 q 57 6 45 8 q 37 8 26 13 q 16 18 4 35 q -8 52 -10 76 q -23 232 -4 352 q 16 471 64 592 q 92 665 129 720 q 166 774 202 802 q 237 831 264 846 q 292 860 315 863 q 338 867 351 848 q 359 837 360 821 q 362 805 356 780 q 349 756 342 734 q 335 713 317 676 q 299 640 286 614 q 274 589 247 542 q 220 496 204 469 q 189 442 157 388 q 143 364 135 351 q 160 379 188 398 q 217 416 240 422 q 264 428 286 430 q 309 433 321 428 q 360 418 382 389 q 404 360 409 317 q 450 333 451 334 q 481 347 493 338 z m 185 610 q 143 501 118 398 q 209 559 256 658 q 304 756 310 780 q 317 803 316 819 q 297 810 250 734 q 204 657 185 610 z m 200 106 q 246 124 274 196 q 199 146 187 115 q 182 104 192 105 q 195 105 200 106 z"},"%":{"x_min":0,"x_max":429,"ha":429,"o":"m 312 543 q 347 533 330 492 q 307 438 260 310 q 213 182 194 134 q 165 66 142 26 q 124 -4 94 12 q 68 26 85 70 q 93 90 162 263 q 231 436 263 514 q 268 528 274 536 q 281 543 289 544 q 297 546 301 546 q 305 545 312 543 z m 279 155 q 309 157 327 139 q 345 121 349 89 q 352 64 333 45 q 314 26 284 24 q 230 19 225 92 q 223 119 236 136 q 249 154 279 155 z m 285 65 q 297 66 304 73 q 311 80 310 90 q 308 116 284 115 q 261 114 263 91 q 265 63 285 65 z m 179 492 q 182 468 164 450 q 145 431 115 428 q 90 426 75 443 q 60 460 58 496 q 56 522 69 539 q 82 556 111 557 q 141 559 158 541 q 176 523 179 492 z m 95 494 q 97 467 117 469 q 129 470 136 477 q 143 484 142 493 q 139 519 116 518 q 94 517 95 494 z"},"m":{"x_min":0,"x_max":600,"ha":600,"o":"m 631 330 q 643 327 644 312 q 646 298 642 289 q 612 193 568 112 q 523 32 479 20 q 456 12 440 16 q 424 21 414 27 q 404 33 398 46 q 392 59 390 68 q 388 78 387 89 q 385 134 386 148 q 388 161 397 207 q 400 226 406 246 q 411 267 415 280 q 419 292 422 303 q 425 314 424 319 q 424 324 420 325 q 407 328 390 307 q 373 286 354 245 q 335 204 319 151 q 313 126 309 107 q 302 75 288 62 q 275 48 242 50 q 218 52 210 76 q 203 99 208 133 q 214 167 223 206 q 232 245 241 279 q 250 313 249 336 q 248 358 233 359 q 195 361 154 276 q 113 192 89 79 q 88 73 85 64 q 75 30 64 18 q 52 5 30 2 q 7 -1 -5 22 q -17 44 -11 90 q -9 102 0 174 q 10 247 18 313 q 27 379 31 398 q 35 418 40 428 q 46 437 58 440 q 70 444 94 444 q 114 445 126 440 q 138 434 144 426 q 149 418 148 402 q 148 386 146 372 q 143 359 137 335 q 177 396 217 408 q 235 415 260 414 q 286 412 303 400 q 324 384 334 368 q 345 351 346 320 q 373 354 401 367 q 440 384 485 363 q 499 357 506 349 q 514 341 520 323 q 526 305 522 271 q 517 237 503 187 q 482 115 483 72 q 518 108 550 172 q 583 236 603 304 q 605 311 606 314 q 608 317 611 322 q 614 328 619 330 q 624 332 631 330 z"},"#":{"x_min":0,"x_max":613,"ha":613,"o":"m 513 390 q 533 392 541 376 q 549 361 541 344 q 533 327 513 325 q 476 322 425 319 q 417 292 411 268 q 460 271 477 273 q 497 275 505 260 q 513 244 505 226 q 497 209 477 208 q 445 205 395 202 q 381 139 372 90 q 370 76 355 68 q 340 60 326 64 q 311 68 304 82 q 297 95 300 110 q 307 149 318 199 q 268 198 220 199 q 208 148 200 103 q 198 88 184 80 q 169 73 155 77 q 140 81 133 94 q 126 107 129 122 q 133 150 144 199 q 94 200 79 201 q 67 201 59 208 q 51 215 49 224 q 47 234 49 244 q 51 253 59 260 q 67 266 79 266 q 122 265 159 264 q 171 315 172 317 q 170 317 148 318 q 126 318 115 318 q 103 318 95 325 q 87 332 85 342 q 83 351 85 361 q 87 371 95 378 q 103 384 115 383 q 147 383 190 382 q 207 445 226 509 q 232 530 252 534 q 273 538 288 524 q 304 511 298 489 q 281 431 267 381 q 313 381 365 382 q 380 437 397 496 q 404 518 424 522 q 445 526 460 512 q 476 498 469 476 q 453 420 443 386 q 493 388 513 390 z m 334 265 q 344 308 347 317 q 294 316 249 316 q 245 300 235 264 q 283 264 334 265 z"},",":{"x_min":0,"x_max":222,"ha":222,"o":"m 146 48 q 155 34 155 13 q 156 -3 146 -25 q 142 -33 133 -45 q 129 -53 122 -57 q 121 -57 120 -58 q 118 -59 116 -60 q 115 -60 114 -60 q 102 -64 89 -57 q 77 -51 74 -37 q 70 -22 77 -12 q 84 -3 88 5 q 89 7 89 10 q 80 17 76 29 q 72 41 80 54 q 87 66 99 69 q 116 72 129 65 q 139 59 146 48 z m 109 5 q 110 5 112 6 q 115 6 116 6 q 112 5 106 5 q 106 5 108 5 q 109 5 109 5 z"},"n":{"x_min":0,"x_max":395,"ha":395,"o":"m 423 330 q 435 327 437 312 q 439 298 434 289 q 354 40 279 20 q 257 12 240 16 q 224 21 214 27 q 205 33 199 46 q 193 59 190 68 q 188 78 188 90 q 185 103 187 124 q 189 144 190 149 q 190 154 195 174 q 200 195 203 209 q 205 223 209 238 q 213 253 216 264 q 218 274 220 284 q 223 295 224 302 q 226 308 226 314 q 227 319 226 322 q 224 324 221 325 q 209 328 186 298 q 162 269 136 217 q 109 165 89 108 q 87 96 86 89 q 73 38 62 22 q 50 5 25 2 q 1 -1 -10 22 q -22 44 -16 90 q -14 102 -5 174 q 4 247 13 313 q 22 379 25 398 q 31 427 42 436 q 54 444 89 444 q 106 445 118 442 q 130 438 136 429 q 141 420 143 412 q 145 403 142 386 q 140 369 137 358 q 134 346 128 323 q 122 300 119 286 q 174 379 219 399 q 259 417 295 400 q 313 392 322 374 q 330 357 328 310 q 325 262 304 187 q 302 181 298 166 q 293 150 292 146 q 291 143 288 128 q 284 114 284 111 q 285 108 283 92 q 281 77 283 72 q 343 134 395 304 q 398 313 400 318 q 402 322 408 328 q 415 333 423 330 z"},"h":{"x_min":0,"x_max":443,"ha":443,"o":"m 491 319 q 499 314 502 306 q 504 298 500 290 q 456 210 379 128 q 302 47 255 44 q 228 42 210 50 q 191 59 186 72 q 180 86 178 102 q 175 117 178 129 q 180 148 185 166 q 190 183 195 195 q 200 207 209 227 q 218 247 223 261 q 231 279 242 300 q 253 321 261 335 q 269 349 275 362 q 281 375 280 383 q 279 391 270 393 q 250 400 217 374 q 184 349 150 302 q 115 256 88 202 q 85 177 81 139 q 77 101 75 78 q 73 56 72 50 q 72 49 71 46 q 70 36 68 30 q 67 24 62 16 q 58 8 49 4 q 40 1 26 3 q 12 4 -4 20 q -21 37 -22 72 q -33 395 48 601 q 77 674 109 728 q 141 782 170 811 q 199 840 222 854 q 246 868 268 871 q 292 875 304 856 q 337 808 278 658 q 219 508 99 303 q 99 302 99 302 q 141 361 186 398 q 231 435 268 437 q 288 438 310 429 q 331 420 345 403 q 360 385 364 376 q 369 368 370 348 q 371 328 360 299 q 348 270 324 222 q 320 214 313 201 q 306 188 302 179 q 297 170 291 158 q 285 146 281 136 q 277 127 274 116 q 270 104 269 94 q 317 128 376 190 q 435 252 463 308 q 468 316 476 319 q 483 322 491 319 z m 269 827 q 255 820 224 759 q 194 698 158 594 q 122 490 101 388 q 281 720 270 823 q 269 826 269 827 z"},"z":{"x_min":0,"x_max":367,"ha":367,"o":"m 411 321 q 420 318 424 310 q 428 301 423 293 q 386 231 328 148 q 270 66 240 33 q 234 5 228 -29 q 222 -63 218 -88 q 214 -112 208 -141 q 203 -170 198 -192 q 192 -213 184 -237 q 177 -261 168 -280 q 158 -300 146 -320 q 133 -341 116 -359 q 100 -377 80 -394 q 53 -417 6 -430 q -41 -442 -82 -430 q -100 -425 -110 -412 q -120 -400 -122 -388 q -125 -377 -126 -360 q -129 -296 -68 -206 q -6 -115 118 14 q 133 52 134 58 q 99 50 74 50 q 48 50 34 56 q 21 62 14 70 q 8 77 8 86 q 4 126 22 149 q 41 172 102 205 q 140 226 168 254 q 196 282 206 300 q 216 319 214 325 q 216 337 201 338 q 179 340 131 309 q 129 308 125 305 q 112 297 105 294 q 98 290 87 286 q 76 282 65 284 q 54 285 41 292 q 31 297 24 306 q 18 314 17 324 q 16 335 16 345 q 16 355 20 366 q 23 378 26 386 q 28 393 32 401 q 35 409 35 409 q 38 418 47 424 q 56 429 65 429 q 81 430 92 418 q 104 407 98 399 q 77 366 86 346 q 92 334 107 345 q 144 375 181 390 q 218 405 246 404 q 273 403 292 394 q 312 386 320 372 q 339 338 302 265 q 266 192 212 154 q 200 145 181 137 q 207 146 228 144 q 249 141 245 119 q 260 135 286 170 q 313 206 344 250 q 374 293 383 305 q 384 306 386 310 q 388 313 389 314 q 390 316 392 318 q 395 321 397 322 q 399 322 402 322 q 406 322 411 321 z m -16 -340 q 7 -323 25 -305 q 43 -287 55 -266 q 67 -245 75 -228 q 83 -210 89 -184 q 95 -159 98 -143 q 100 -127 104 -97 q 109 -67 112 -51 q 10 -172 -32 -234 q -75 -296 -77 -341 q -76 -358 -54 -356 q -33 -353 -16 -340 z"},"B":{"x_min":0,"x_max":669,"ha":669,"o":"m 666 348 q 678 329 647 318 q 606 303 565 287 q 574 240 557 196 q 534 134 488 82 q 443 31 374 5 q 321 -15 263 -6 q 205 2 194 31 q 176 73 193 112 q 210 150 270 190 q 330 230 448 281 q 446 305 430 318 q 413 332 390 336 q 368 340 340 339 q 313 338 293 334 q 273 330 258 326 q 254 325 251 326 q 248 328 246 332 q 243 337 241 340 q 239 344 238 349 q 235 356 238 364 q 173 178 125 -19 q 121 -35 104 -35 q 103 -35 101 -35 q 99 -35 98 -35 q 63 -35 40 -28 q 16 -21 8 -14 q 1 -6 3 1 l 179 667 q 156 648 136 640 q 117 631 102 634 q 88 636 79 640 q 70 645 61 654 q 44 670 41 702 q 38 733 42 752 q 45 771 50 787 q 52 793 56 797 q 61 801 66 802 q 71 803 77 802 q 86 799 90 791 q 95 783 92 775 q 84 750 83 728 q 82 705 91 693 q 99 685 136 699 q 168 712 182 728 q 196 744 201 762 q 206 779 212 785 q 226 795 256 794 q 286 792 295 787 q 319 773 319 747 l 300 655 q 310 682 320 704 q 330 725 341 742 q 352 758 358 768 q 365 779 376 790 q 388 800 391 803 q 394 806 407 815 q 420 824 421 824 q 460 853 512 848 q 564 842 593 808 q 612 787 623 757 q 634 727 638 688 q 641 649 626 601 q 611 553 578 505 q 565 486 559 477 q 553 468 542 456 q 531 443 521 436 q 511 428 496 420 q 482 411 463 403 q 526 386 554 326 q 585 338 624 353 q 655 365 666 348 z m 250 376 q 300 395 336 416 q 373 438 398 463 q 423 488 438 510 q 454 531 471 563 q 545 702 496 741 q 472 761 439 746 q 438 746 437 745 q 357 704 239 365 q 243 373 250 376 z m 432 216 q 434 222 439 235 q 335 189 286 151 q 237 113 244 81 q 247 66 276 67 q 336 70 393 151 q 414 179 432 216 z"},"K":{"x_min":0,"x_max":619,"ha":619,"o":"m 523 692 q 524 693 530 697 q 535 701 536 702 q 537 703 542 707 q 546 711 547 712 q 548 714 551 718 q 554 722 556 726 q 557 729 558 734 q 560 738 561 743 q 566 775 552 790 q 537 806 511 796 q 423 763 298 489 q 357 517 391 497 q 454 460 419 311 q 389 184 409 170 q 417 165 449 202 q 481 238 514 283 q 546 328 557 349 q 561 358 570 360 q 578 363 586 360 q 594 356 597 348 q 600 339 596 330 q 582 302 551 250 q 520 199 474 142 q 429 84 401 77 q 371 69 350 80 q 330 91 321 114 q 312 138 308 166 q 304 193 306 222 q 308 252 310 272 q 313 291 315 301 q 323 334 328 358 q 332 381 334 393 q 335 405 334 412 q 333 420 332 422 q 330 424 327 426 q 308 437 261 405 q 201 262 118 27 q 116 20 104 11 q 92 2 85 2 q 81 2 79 3 q 72 5 65 8 q 58 11 48 18 q 37 26 32 38 q 28 51 32 67 q 49 142 94 338 q 140 533 172 674 q 205 816 203 815 q 191 805 174 795 q 156 782 138 776 q 119 769 104 768 q 88 768 74 770 q 59 772 47 778 q 35 783 25 790 q 15 796 7 804 q -1 811 -6 816 q -11 822 -14 827 q -18 832 -18 832 q -25 838 -25 847 q -25 856 -19 862 q -13 869 -4 869 q 5 869 12 863 q 16 857 22 850 q 27 844 42 832 q 56 821 72 816 q 87 810 109 813 q 131 816 152 832 q 156 835 164 840 q 173 846 177 849 q 178 850 180 852 q 191 860 197 864 q 203 867 215 872 q 227 876 242 874 q 257 873 276 867 q 289 863 303 846 q 317 830 312 812 q 310 802 300 765 q 290 728 278 683 q 266 638 254 592 q 241 546 231 508 q 221 471 218 458 q 290 625 359 722 q 428 819 510 857 q 526 864 548 866 q 569 867 592 861 q 615 855 630 832 q 646 808 644 769 q 642 747 636 727 q 629 707 620 694 q 612 682 600 671 q 589 660 581 655 q 573 650 564 646 q 555 641 555 640 q 547 636 537 639 q 527 642 522 650 q 503 677 523 692 z"},"R":{"x_min":0,"x_max":734,"ha":734,"o":"m 792 333 q 797 325 772 278 q 747 232 669 107 q 596 -10 549 -14 q 510 -17 484 -2 q 459 12 448 39 q 437 66 432 94 q 428 121 424 153 q 419 185 413 200 q 389 258 325 273 q 324 274 320 274 q 317 274 315 274 q 291 278 290 278 q 283 278 278 278 q 272 278 266 278 q 261 277 256 276 q 252 276 248 276 q 245 275 242 274 q 240 274 238 274 q 237 274 237 274 q 236 274 236 274 q 235 274 235 274 q 228 237 219 190 q 210 143 201 94 q 192 45 186 12 q 183 -4 173 -12 q 163 -19 154 -18 q 145 -18 134 -16 q 122 -13 121 -13 q 118 -13 115 -12 q 109 -10 102 -6 q 95 -3 86 4 q 76 11 71 24 q 66 36 68 52 q 76 111 90 211 q 105 311 120 409 q 135 507 148 598 q 162 689 170 745 q 179 801 177 800 q 165 790 149 780 q 130 768 112 761 q 93 754 78 754 q 62 753 48 755 q 33 757 22 763 q 10 769 0 775 q -10 781 -18 788 q -26 796 -32 802 q -37 807 -40 812 q -44 817 -44 817 q -50 823 -50 832 q -51 841 -44 848 q -38 854 -29 854 q -20 855 -14 848 q -14 848 -13 848 q -9 842 -4 836 q 1 830 16 818 q 31 806 46 800 q 61 795 83 798 q 105 801 127 817 q 130 820 134 823 q 139 826 144 829 q 148 832 151 835 q 153 836 156 838 q 166 846 174 850 q 181 855 194 860 q 207 866 223 866 q 239 865 258 858 q 260 858 269 857 q 278 856 286 854 q 293 851 300 846 q 308 842 312 832 q 315 822 313 808 q 311 793 310 778 q 308 763 306 749 q 304 735 299 714 q 301 715 315 730 q 329 744 335 750 q 341 756 357 770 q 373 785 384 794 q 395 802 412 814 q 430 826 444 833 q 459 840 478 847 q 497 854 514 856 q 528 857 546 858 q 563 860 586 854 q 609 848 631 838 q 653 828 675 806 q 697 783 712 752 q 728 716 732 664 q 735 611 720 550 q 706 490 676 435 q 647 380 591 337 q 535 294 462 278 q 493 252 505 213 q 506 208 510 170 q 513 131 519 98 q 525 64 535 61 q 536 61 542 58 q 549 55 552 54 q 555 54 564 56 q 572 59 580 66 q 587 74 600 90 q 612 106 627 129 l 754 333 l 754 334 q 757 340 763 343 q 771 347 780 344 q 788 341 792 333 z m 305 586 q 281 514 245 329 q 286 332 327 328 q 478 343 546 475 q 594 569 580 670 q 569 747 530 760 q 518 765 505 761 q 431 741 379 697 q 327 653 305 586 z"},"T":{"x_min":0,"x_max":358,"ha":358,"o":"m 616 831 q 618 820 612 810 q 607 801 600 796 q 593 792 586 790 q 499 769 277 739 l 194 11 q 194 3 184 -4 q 175 -11 161 -13 q 159 -13 155 -13 q 144 -13 128 -14 q 113 -16 100 -6 q 86 3 86 22 q 86 158 174 726 q 72 713 -75 697 q -134 690 -138 727 q -141 751 -124 766 q -107 782 -74 787 q 417 858 581 862 q 611 863 616 831 z"},"P":{"x_min":0,"x_max":541,"ha":541,"o":"m 612 781 q 637 742 647 701 q 657 660 653 622 q 649 585 634 549 q 619 513 594 484 q 569 455 538 431 q 507 407 470 394 q 433 382 394 378 q 355 373 315 383 q 251 398 216 456 l 117 18 q 112 -20 51 -16 q 30 -15 20 2 q 9 18 16 44 q 21 63 109 416 q 197 770 197 772 l 182 761 q 174 755 164 746 q 124 712 82 721 q 62 725 44 737 q 27 749 16 764 q 4 780 -2 788 q -7 797 -10 803 q -14 812 -12 820 q -9 829 0 833 q 8 837 16 834 q 25 831 29 823 q 37 806 54 787 q 71 768 91 764 q 112 760 136 779 q 140 783 147 788 q 154 794 168 804 q 182 814 196 822 q 211 829 227 835 q 243 841 258 840 q 273 840 283 833 q 286 831 290 821 q 293 813 295 813 l 297 815 q 301 817 308 822 q 315 826 320 829 q 325 832 332 836 q 340 839 346 841 q 394 855 440 857 q 487 859 536 841 q 585 823 612 781 z m 337 464 q 377 462 411 478 q 445 493 466 519 q 487 545 502 576 q 517 608 522 638 q 528 668 527 692 q 526 717 518 728 q 486 773 450 787 q 415 801 359 786 q 298 769 289 753 q 288 750 287 745 l 235 520 q 243 501 263 488 q 283 474 302 469 q 320 464 337 464 z"},"|":{"x_min":0,"x_max":277,"ha":277,"o":"m 170 472 q 174 164 175 10 q 176 -10 160 -18 q 143 -26 126 -18 q 110 -10 110 10 q 110 40 109 77 q 108 229 104 539 q 104 548 108 554 q 111 561 116 564 q 122 568 129 570 q 136 572 143 570 q 150 568 156 564 q 162 561 166 554 q 169 548 169 539 q 169 524 170 472 z"},"t":{"x_min":0,"x_max":333,"ha":333,"o":"m 383 279 q 383 279 373 262 q 363 244 347 219 q 331 194 310 164 q 288 134 258 101 q 228 68 196 42 q 142 -2 99 -2 q 46 -8 35 42 q 35 42 35 42 q 35 43 34 44 q 21 86 37 214 q 53 341 84 489 q 23 493 -36 470 q -45 467 -53 471 q -61 475 -64 483 q -66 487 -66 492 q -66 496 -64 500 q -62 503 -59 506 q -56 509 -52 511 q 19 538 93 532 q 111 615 126 669 q 136 706 144 722 q 151 737 160 742 q 169 748 188 749 q 217 749 232 732 q 247 716 239 686 q 236 673 198 512 q 235 501 268 506 q 300 511 328 540 q 334 546 343 546 q 352 547 358 540 q 365 534 366 525 q 366 516 359 510 q 313 461 253 461 q 228 461 189 470 q 164 364 154 319 q 140 262 130 201 q 123 163 119 96 q 119 95 118 93 q 118 91 118 89 q 120 72 128 73 q 143 71 183 105 q 201 120 218 136 q 234 152 248 167 q 261 182 274 197 q 286 212 296 226 q 306 239 314 251 q 323 263 329 272 q 335 282 339 289 q 343 296 346 300 q 348 305 348 305 q 353 312 362 313 q 371 314 378 309 q 386 304 387 295 q 388 286 383 279 z"},"M":{"x_min":0,"x_max":1013,"ha":1013,"o":"m 981 362 q 990 359 994 352 q 998 344 994 336 q 992 329 976 297 q 959 265 924 208 q 889 151 855 109 q 829 77 800 64 q 770 50 744 54 q 718 59 698 69 q 678 79 665 93 q 650 108 642 127 q 635 146 635 172 q 635 199 637 220 q 639 242 650 281 q 660 320 667 344 q 674 368 690 417 q 694 428 696 434 q 697 440 700 450 q 703 459 706 467 q 775 688 751 687 q 750 687 749 687 q 738 682 724 672 q 711 663 689 642 q 667 622 642 584 q 616 545 592 495 q 571 428 541 341 q 536 326 503 325 q 470 324 442 342 q 414 360 422 392 q 425 400 436 440 q 526 763 502 764 q 476 754 448 724 q 420 693 396 654 q 371 614 343 556 q 315 498 294 448 q 273 397 248 328 q 222 259 206 214 q 191 169 170 108 q 149 46 141 23 q 139 17 116 8 q 94 -2 86 -2 q 83 -2 80 -1 q 73 1 66 4 q 59 8 49 15 q 39 22 34 34 q 30 47 33 63 q 46 121 94 330 q 141 540 172 678 q 203 816 201 815 q 189 805 173 795 q 154 782 136 776 q 117 769 102 768 q 86 768 72 770 q 57 772 46 778 q 34 783 24 790 q 14 796 6 804 q -2 811 -8 816 q -13 822 -16 827 q -20 832 -20 832 q -26 838 -26 847 q -27 856 -20 862 q -14 869 -5 869 q 4 869 10 863 q 15 857 20 850 q 25 844 40 832 q 55 821 70 816 q 85 810 107 813 q 129 816 151 832 q 155 835 163 840 q 171 846 175 849 q 176 850 179 852 q 187 858 192 861 q 196 864 206 868 q 215 873 224 874 q 232 875 246 874 q 259 872 275 867 q 288 863 302 846 q 315 830 311 812 q 256 604 243 543 q 279 626 304 675 q 328 724 356 760 q 385 796 414 816 q 442 837 487 857 q 501 863 514 867 q 526 871 544 871 q 562 871 576 864 q 591 856 604 836 q 618 817 625 785 q 637 729 637 707 q 700 775 762 781 q 801 784 828 776 q 856 768 871 749 q 886 730 892 703 q 898 676 894 638 q 890 599 880 556 q 870 514 853 461 q 849 447 840 423 q 832 399 825 378 q 818 356 809 328 q 800 300 794 278 q 787 257 780 232 q 773 206 770 191 q 767 176 766 161 q 764 146 768 144 q 778 131 798 144 q 818 158 842 194 q 859 220 877 246 q 895 271 908 288 q 920 306 930 320 q 941 334 946 341 q 951 348 951 348 q 953 354 958 358 q 963 361 968 362 q 974 363 981 362 z"},"g":{"x_min":0,"x_max":452,"ha":452,"o":"m 471 312 q 480 309 484 300 q 488 292 483 284 q 428 192 331 87 q 328 72 322 43 q 311 -17 304 -48 q 298 -78 286 -130 q 273 -181 260 -213 q 248 -245 230 -284 q 213 -322 190 -351 q 168 -380 140 -403 q 113 -426 66 -438 q 19 -451 -23 -439 q -40 -434 -50 -422 q -60 -409 -62 -398 q -65 -386 -66 -369 q -69 -303 10 -180 q 89 -57 209 67 q 211 74 214 84 q 125 -20 45 -10 q 18 -7 -6 22 q -31 52 -44 96 q -57 141 -47 202 q -37 262 0 320 q 23 354 52 376 q 82 399 111 408 q 140 416 168 415 q 195 414 216 404 q 237 393 248 375 q 253 366 258 353 q 263 384 267 393 q 274 409 300 420 q 327 430 351 420 q 375 411 373 377 q 372 344 360 271 q 349 198 340 161 q 355 177 372 200 q 390 222 412 254 q 434 285 443 296 q 444 298 446 302 q 449 306 450 308 q 452 309 456 312 q 459 314 462 313 q 465 312 471 312 z m 44 -349 q 71 -329 93 -303 q 115 -277 130 -245 q 146 -213 158 -185 q 169 -157 178 -119 q 187 -81 192 -58 q 197 -34 203 3 q 109 -110 47 -206 q -15 -303 -17 -350 q -16 -367 6 -364 q 27 -362 44 -349 z m 71 65 q 89 54 138 86 q 187 119 234 182 q 239 210 245 255 q 245 256 244 257 q 244 258 244 259 q 240 299 223 322 q 206 344 182 340 q 154 336 127 305 q 100 274 80 228 q 62 183 60 128 q 57 72 71 65 z"},"j":{"x_min":0,"x_max":188,"ha":188,"o":"m 68 463 q 47 467 36 485 q 24 503 28 524 l 32 545 q 36 566 54 578 q 72 590 93 586 l 103 584 q 124 580 136 562 q 148 544 144 523 l 140 502 q 135 481 118 469 q 100 457 79 461 z m 215 312 q 224 309 228 300 q 232 292 228 284 q 172 192 75 87 q 72 72 67 43 q 55 -17 48 -48 q 42 -78 30 -130 q 17 -181 5 -213 q -7 -245 -25 -284 q -43 -322 -66 -351 q -88 -380 -116 -403 q -142 -426 -190 -438 q -237 -451 -278 -439 q -295 -434 -305 -422 q -315 -409 -318 -398 q -320 -386 -321 -369 q -325 -303 -246 -180 q -166 -57 -47 67 q -31 105 -12 242 q 6 380 11 393 q 18 409 44 420 q 71 430 95 420 q 119 411 118 377 q 117 344 106 271 q 94 198 84 161 q 100 177 118 200 q 135 222 157 254 q 179 285 187 296 q 188 297 190 300 q 192 304 194 306 q 195 307 197 310 q 199 312 202 312 q 204 313 208 313 q 211 313 215 312 z m -211 -349 q -185 -329 -163 -303 q -141 -277 -125 -245 q -109 -213 -98 -185 q -86 -157 -77 -119 q -68 -81 -64 -58 q -59 -34 -53 2 q -147 -110 -208 -206 q -270 -303 -273 -350 q -272 -367 -250 -364 q -229 -362 -211 -349 z"},"i":{"x_min":0,"x_max":256,"ha":256,"o":"m 312 288 q 293 251 241 186 q 189 122 129 66 q 69 11 38 8 q 10 6 -8 14 q -26 23 -32 37 q -37 51 -40 66 q -42 82 -39 93 q -35 131 -8 254 q 18 377 24 388 q 25 390 27 400 q 29 411 32 418 q 36 425 50 432 q 65 438 88 437 q 119 436 130 424 q 140 412 137 398 q 129 357 96 226 q 63 94 51 54 q 93 84 168 168 q 244 252 274 308 q 278 316 286 318 q 295 321 303 317 q 311 313 314 304 q 316 296 312 288 z m 96 480 q 75 484 63 502 q 51 519 55 540 l 59 562 q 64 583 82 594 q 99 606 120 602 l 131 600 q 152 596 164 578 q 175 560 171 539 l 167 518 q 163 497 145 485 q 127 473 106 478 z"},"y":{"x_min":0,"x_max":366,"ha":366,"o":"m 406 312 q 415 309 419 300 q 423 292 419 284 q 364 192 266 87 q 264 77 255 30 q 246 -18 244 -30 q 241 -42 232 -84 q 222 -127 218 -142 q 213 -156 203 -192 q 193 -227 185 -243 q 177 -259 164 -287 q 151 -315 138 -332 q 126 -349 110 -368 q 94 -388 76 -403 q 49 -426 2 -438 q -45 -451 -87 -439 q -104 -434 -114 -422 q -124 -409 -126 -398 q -129 -386 -130 -369 q -134 -303 -54 -180 q 25 -57 144 67 q 154 90 163 142 q 72 12 4 15 q 2 15 -2 15 q -42 15 -60 52 q -80 93 -81 160 q -82 226 -74 276 q -65 325 -54 367 q -39 420 28 422 q 37 422 42 422 q 46 421 53 420 q 60 418 62 414 q 64 411 68 404 q 72 398 70 388 q 69 379 68 365 q 66 349 50 275 q 33 201 22 141 q 11 81 16 73 q 25 58 77 115 q 151 196 182 277 q 183 281 184 285 q 197 379 203 393 q 210 409 236 420 q 263 430 286 420 q 310 411 309 377 q 308 356 302 316 q 296 276 288 235 q 281 194 274 168 q 314 210 378 296 q 379 298 382 301 q 384 304 385 306 q 386 307 388 310 q 390 312 392 312 q 395 313 398 313 q 402 313 406 312 z m -20 -349 q 12 -325 38 -292 q 63 -258 78 -226 q 94 -195 106 -152 q 119 -109 125 -80 q 131 -51 138 -9 q 44 -121 -14 -212 q -71 -302 -73 -349 q -72 -366 -55 -364 q -38 -362 -20 -349 z"},"@":{"x_min":0,"x_max":523,"ha":523,"o":"m 370 285 q 387 285 398 309 q 408 333 408 365 q 408 406 383 434 q 358 462 325 475 q 304 484 284 484 q 263 485 243 478 q 223 470 208 462 q 194 455 172 441 q 129 404 116 332 q 102 259 130 218 q 161 172 225 156 q 289 141 340 162 q 370 176 383 176 q 400 177 413 160 q 418 153 416 140 q 413 128 407 123 q 384 106 348 96 q 270 76 182 102 q 95 128 63 189 q 26 263 47 352 q 68 442 132 498 q 165 527 216 540 q 266 554 309 545 q 352 535 375 521 q 398 507 424 479 q 440 462 451 436 q 462 409 464 380 q 467 351 463 323 q 459 295 446 271 q 433 247 414 234 q 390 214 364 219 q 337 224 319 235 q 301 246 294 257 q 284 239 266 232 q 206 207 183 240 q 158 276 161 309 q 162 324 174 346 q 186 368 203 383 q 298 468 346 331 q 349 321 352 310 q 354 299 355 295 q 356 291 360 288 q 363 286 370 285 z m 252 277 q 287 310 280 331 q 277 342 268 348 q 260 354 252 354 q 239 352 224 330 q 210 309 212 296 q 214 283 226 275 q 239 267 252 277 z"},"p":{"x_min":0,"x_max":357,"ha":357,"o":"m 211 428 q 226 430 250 420 q 275 409 300 389 q 324 369 342 334 q 360 298 360 256 q 360 214 352 175 q 345 136 332 106 q 320 77 302 52 q 285 26 266 11 q 247 -4 227 -14 q 207 -25 188 -24 q 169 -24 152 -18 q 101 5 75 60 l -30 -373 q -32 -380 -37 -388 q -42 -396 -56 -404 q -70 -411 -90 -410 q -99 -409 -106 -406 q -114 -402 -118 -396 q -122 -390 -124 -384 q -127 -377 -127 -368 q -127 -359 -127 -352 q -127 -345 -125 -336 q -123 -326 -122 -321 q -121 -316 -119 -309 q -117 -302 -117 -302 l 22 341 q 31 382 51 396 q 71 409 104 411 q 131 412 142 378 q 143 379 144 380 q 145 382 146 384 q 147 385 148 386 q 149 388 150 389 q 160 402 174 412 q 183 419 196 424 q 202 427 206 428 q 207 428 207 428 l 208 428 q 209 428 211 428 z m 256 213 q 270 290 252 328 q 233 366 198 362 q 191 356 185 350 q 179 343 170 331 q 161 319 142 287 q 124 255 118 228 q 105 172 120 130 q 135 88 163 73 q 182 63 202 84 q 222 106 236 141 q 249 176 256 213 z"},"X":{"x_min":0,"x_max":503,"ha":503,"o":"m 550 782 q 582 775 611 748 q 640 722 640 705 q 640 696 634 690 q 628 683 619 683 q 602 683 598 699 q 591 711 570 726 q 550 741 530 741 q 494 740 468 680 q 451 642 414 533 q 352 353 309 267 q 318 181 330 130 q 341 80 357 82 q 372 84 428 152 q 484 221 529 283 q 574 345 578 351 q 583 359 592 361 q 600 363 608 358 q 616 354 618 346 q 620 337 615 329 q 607 315 586 283 q 566 251 511 175 q 456 99 403 38 q 394 28 390 23 q 386 18 372 8 q 358 -3 347 -7 q 336 -11 319 -10 q 302 -10 286 0 q 247 23 224 135 q 196 102 167 82 q 122 52 83 52 q 62 52 43 61 q 14 75 0 105 q -15 135 -16 166 q -19 234 24 261 q 32 266 41 264 q 50 262 54 254 q 59 246 57 238 q 55 229 47 224 q 25 211 27 168 q 28 145 38 126 q 47 107 62 100 q 93 85 142 118 q 179 144 214 192 q 203 270 193 400 q 190 429 186 491 q 182 553 180 580 q 177 608 172 648 q 168 687 162 710 q 157 733 150 747 q 138 769 127 768 q 116 766 108 755 q 101 744 101 736 q 101 730 98 725 q 95 720 90 717 q 85 714 79 714 q 70 714 64 720 q 57 727 57 736 q 57 762 83 804 q 109 846 142 858 q 186 874 222 833 q 239 814 251 776 q 263 737 272 670 q 281 603 286 556 q 290 508 297 415 q 302 356 302 355 q 329 420 372 547 q 410 658 428 698 q 442 729 460 749 q 477 769 492 776 q 508 782 524 784 q 540 787 550 782 z"},"*":{"x_min":0,"x_max":266,"ha":266,"o":"m 202 528 q 212 528 218 521 q 225 514 225 504 q 226 498 222 492 q 219 487 214 484 q 208 481 202 481 q 197 481 192 480 q 187 480 181 480 q 175 480 171 480 q 175 462 176 458 q 181 439 189 424 q 199 404 180 392 q 173 387 163 390 q 153 392 148 400 q 138 421 130 452 q 121 423 108 400 q 103 392 94 390 q 84 388 76 392 q 68 396 66 406 q 63 416 68 424 q 73 433 77 443 q 78 443 78 444 q 78 444 78 444 q 79 447 80 449 q 81 453 83 458 q 84 461 85 466 q 86 472 87 473 q 71 471 66 470 q 44 466 37 486 q 34 495 40 504 q 45 513 53 515 q 61 516 98 520 q 98 523 99 528 q 100 533 100 536 q 102 545 105 553 q 105 563 112 570 q 119 578 131 576 q 142 578 151 570 q 158 563 157 550 q 159 543 161 533 q 161 532 162 530 q 162 527 162 526 q 200 528 202 528 z"},"Y":{"x_min":0,"x_max":520,"ha":520,"o":"m 612 352 q 615 340 610 334 q 604 328 588 327 q 571 325 534 315 q 496 305 470 295 q 452 212 451 206 q 438 145 416 98 q 394 50 370 22 q 346 -5 320 -22 q 293 -40 272 -46 q 250 -52 231 -51 q 201 -49 180 -34 q 160 -20 154 0 q 147 19 144 41 q 141 63 145 82 q 153 145 218 208 q 284 270 366 311 q 377 361 395 452 q 340 374 269 371 q 226 370 199 391 q 172 412 150 449 q 133 476 136 532 q 138 589 149 643 q 160 697 170 746 q 179 794 175 805 q 173 812 166 814 q 160 815 150 810 q 141 806 130 798 q 120 791 109 780 q 103 775 96 776 q 88 776 83 782 q 78 789 78 797 q 79 805 85 810 q 98 821 118 834 q 137 848 170 858 q 203 869 227 860 q 282 837 262 750 q 251 704 244 672 q 238 641 232 603 q 227 565 228 540 q 228 515 232 492 q 237 469 250 456 q 264 444 285 440 q 323 435 364 488 q 404 541 432 634 q 453 739 454 744 q 467 803 474 834 q 477 846 484 852 q 489 858 496 857 q 500 858 504 858 q 528 855 540 850 q 553 846 562 834 q 572 822 571 802 q 570 783 566 750 q 553 677 480 342 q 488 345 511 350 q 534 356 556 360 q 577 365 583 366 q 608 368 612 352 z m 238 22 q 288 54 312 106 q 336 159 356 257 q 292 221 244 170 q 196 119 190 71 q 186 42 202 26 q 219 10 238 22 z"},"c":{"x_min":0,"x_max":345,"ha":345,"o":"m 386 321 q 400 319 403 308 q 406 298 401 284 q 396 269 385 252 q 298 112 222 53 q 145 -6 82 1 q 50 4 22 35 q -5 66 -20 112 q -35 157 -24 220 q -12 283 30 341 q 61 383 94 407 q 128 431 155 434 q 182 438 200 435 q 219 432 227 425 q 247 410 256 392 q 265 373 262 359 q 260 345 247 340 q 240 337 236 342 q 233 346 232 352 q 231 359 226 362 q 221 365 210 359 q 159 332 120 248 q 99 202 96 143 q 94 84 111 77 q 138 63 215 122 q 292 181 351 280 q 355 287 360 296 q 364 304 366 308 q 369 311 372 315 q 375 319 378 320 q 382 321 386 321 z"},"!":{"x_min":0,"x_max":262,"ha":262,"o":"m 153 68 q 173 68 182 52 q 190 35 182 18 q 173 2 153 2 q 141 2 133 9 q 125 16 123 26 q 121 35 123 44 q 125 54 133 61 q 141 68 153 68 z m 188 156 q 188 136 172 128 q 156 120 140 128 q 123 137 122 156 q 118 342 120 527 q 120 547 136 555 q 153 563 169 555 q 185 547 185 527 q 183 342 188 156 z"},"/":{"x_min":0,"x_max":335,"ha":335,"o":"m 229 553 q 235 572 254 576 q 272 579 285 567 q 298 555 292 536 l 271 470 q 218 307 124 15 q 117 -4 99 -8 q 81 -11 68 1 q 54 13 61 32 q 68 54 82 98 q 134 260 229 553 z"},"[":{"x_min":0,"x_max":303,"ha":303,"o":"m 147 73 q 151 67 166 66 q 182 64 198 64 q 214 65 226 58 q 239 50 238 33 q 237 18 214 10 q 191 3 166 4 q 141 4 123 6 q 111 8 102 19 q 93 30 88 50 q 83 69 80 89 q 76 109 74 136 q 73 164 72 183 q 71 202 71 227 q 71 252 70 260 q 68 350 76 477 q 82 569 189 562 q 236 559 238 514 q 231 510 230 510 q 200 506 188 504 q 176 503 162 496 q 147 490 144 486 q 140 482 136 466 q 132 450 132 438 q 132 425 132 394 q 132 378 131 309 q 130 240 131 224 q 133 188 134 164 q 135 139 138 110 q 142 82 147 73 z"},"6":{"x_min":0,"x_max":356,"ha":356,"o":"m 309 149 q 316 52 250 11 q 214 -11 180 -14 q 145 -17 116 4 q 87 25 73 67 q 62 99 60 134 q 58 168 62 196 q 66 224 74 265 q 91 348 117 412 q 143 476 189 528 q 196 536 205 542 q 214 549 224 554 q 234 559 244 561 q 254 563 262 562 q 270 562 276 556 q 282 551 284 541 q 285 533 278 524 q 271 515 252 491 q 233 467 216 434 q 198 401 172 330 q 146 259 145 223 q 183 250 229 239 q 265 231 286 208 q 307 184 309 149 z m 219 66 q 237 83 244 107 q 252 131 249 150 q 247 160 236 174 q 225 187 215 189 q 170 198 152 174 q 134 151 143 104 q 151 66 174 54 q 196 43 219 66 z"},"r":{"x_min":0,"x_max":410,"ha":410,"o":"m 452 363 q 469 353 460 322 q 455 301 436 266 q 416 230 384 187 q 352 144 316 105 q 279 66 233 38 q 187 9 145 3 q 145 3 143 2 q 83 -7 71 46 q 68 61 68 72 q 67 84 71 109 q 75 134 90 172 q 105 210 132 262 q 136 271 139 278 q 142 284 144 288 q 145 291 146 294 q 146 297 146 298 q 145 299 146 300 q 146 300 146 301 q 125 283 58 284 q 0 281 -27 319 q -30 322 -32 331 q -35 340 -36 352 q -37 364 -34 378 q -30 393 -22 405 q 4 443 36 436 q 72 429 82 402 q 90 377 79 340 q 111 338 140 350 q 168 363 198 386 q 227 408 231 410 q 246 418 264 421 q 281 424 291 418 q 305 410 310 400 q 315 390 309 370 q 303 350 295 334 q 287 317 266 278 q 250 247 240 229 q 233 215 213 178 q 193 140 178 111 q 164 82 151 53 q 199 69 244 104 q 289 139 316 172 q 344 206 369 248 q 394 289 402 306 q 410 323 416 337 q 416 338 416 338 q 435 373 452 363 z m 34 350 q 41 361 39 374 q 37 388 28 388 q 23 388 19 386 q 15 383 13 380 q 11 377 10 374 q 8 370 8 368 q 8 366 8 366 q 7 360 18 352 q 30 345 34 350 z"},"2":{"x_min":0,"x_max":468,"ha":468,"o":"m 329 547 q 369 532 394 500 q 420 468 411 428 q 407 411 387 376 q 367 340 339 298 q 311 257 278 210 q 246 164 220 128 q 193 92 174 66 q 154 39 153 38 q 203 45 275 43 q 347 41 371 30 q 377 27 378 14 q 379 0 374 -12 q 369 -24 359 -22 q 223 4 93 -30 q 86 -32 74 -30 q 62 -28 58 -23 q 58 -23 55 -19 q 52 -15 50 -13 q 49 -11 46 -6 q 43 -2 42 1 q 41 4 40 9 q 39 14 40 18 q 40 23 42 28 q 44 33 48 38 q 91 93 194 235 q 298 377 324 424 q 330 446 326 458 q 321 471 307 476 q 293 482 282 484 q 271 485 263 484 q 249 482 230 470 q 210 459 200 446 q 188 432 175 427 q 162 422 148 431 q 136 441 134 448 q 132 456 139 473 q 163 520 222 543 q 281 566 329 547 z"},"{":{"x_min":0,"x_max":402,"ha":402,"o":"m 286 41 q 291 13 283 4 q 279 0 273 -3 q 267 -6 260 -8 q 254 -9 254 -10 q 206 -9 181 14 q 156 36 158 76 q 161 132 176 212 q 181 235 172 244 q 164 254 142 253 q 131 252 118 257 q 106 262 101 270 q 97 275 96 280 q 95 285 96 288 q 97 292 102 296 q 106 301 110 304 q 113 306 119 310 q 154 333 164 360 q 174 386 163 427 q 154 467 152 495 q 148 543 207 559 q 214 561 226 554 q 237 548 241 540 q 244 534 240 522 q 236 509 230 506 q 204 493 198 474 q 192 455 202 429 q 229 353 194 301 q 186 288 190 283 q 208 262 214 236 q 220 209 218 191 q 217 173 211 140 q 205 108 204 94 q 203 93 203 92 q 203 91 203 90 q 197 47 210 36 q 223 25 259 44 q 265 46 276 44 q 286 43 286 41 z"},"9":{"x_min":0,"x_max":316,"ha":316,"o":"m 270 481 q 281 450 282 415 q 284 380 280 352 q 277 325 269 284 q 251 200 225 136 q 199 73 153 21 q 140 5 119 -6 q 98 -16 80 -14 q 62 -11 59 8 q 57 16 64 25 q 72 34 91 58 q 110 82 128 115 q 145 148 171 219 q 197 290 198 326 q 159 299 114 309 q 78 318 57 342 q 36 365 33 400 q 26 496 93 538 q 128 560 163 562 q 198 565 227 544 q 256 524 270 481 z m 127 360 q 173 351 191 374 q 209 398 199 445 q 192 483 170 494 q 147 506 124 483 q 106 466 98 442 q 91 418 94 398 q 96 388 106 375 q 117 362 127 360 z"}," ":{"x_min":0,"x_max":305,"ha":305,"o":""},"I":{"x_min":0,"x_max":361,"ha":361,"o":"m 321 858 q 367 854 380 834 q 394 813 383 751 q 377 717 358 629 q 340 541 322 458 q 304 374 286 294 q 269 213 267 206 q 258 162 244 127 q 230 92 214 70 q 198 47 180 30 q 162 14 144 6 q 127 -1 110 -6 q 92 -11 77 -10 q 62 -8 50 -8 q 18 -5 -6 19 q -30 43 -38 82 q -55 165 18 267 q 24 275 36 273 q 49 271 54 262 q 59 252 51 238 q 30 218 12 172 q -7 126 4 91 q 17 52 51 57 q 93 63 127 135 q 147 179 159 242 q 166 277 196 414 q 226 551 252 670 q 279 789 279 791 q 272 799 211 750 q 180 725 148 718 q 116 711 92 720 q 67 728 46 743 q 26 758 15 773 q 4 788 2 798 q 0 807 5 814 q 10 822 19 824 q 28 825 36 820 q 43 815 45 806 q 46 799 57 788 q 68 776 86 766 q 103 755 129 758 q 155 761 180 783 q 273 863 321 858 z"},"H":{"x_min":0,"x_max":717,"ha":717,"o":"m 688 322 q 678 303 668 282 q 657 261 636 222 q 614 182 592 148 q 570 114 545 80 q 520 47 494 26 q 469 4 449 1 q 436 0 422 8 q 408 17 399 30 q 367 78 366 196 q 365 314 406 467 l 398 461 l 398 462 l 389 456 q 384 454 371 447 q 358 440 342 432 q 326 423 310 414 q 305 390 289 315 q 273 240 270 225 q 257 164 236 119 q 214 74 192 50 q 170 26 144 12 q 118 -1 98 -4 q 78 -7 59 -5 q 27 -1 2 23 q -22 47 -29 86 q -65 260 195 411 q 208 473 232 568 q 255 664 272 728 q 288 793 288 795 q 264 794 218 754 q 204 742 196 736 q 189 729 176 718 q 164 708 156 702 q 148 697 136 690 q 125 682 117 678 q 109 675 100 672 q 90 669 82 670 q 73 670 65 672 q 34 683 26 727 q 25 733 27 738 q 29 744 34 748 q 38 751 43 752 q 52 754 60 749 q 67 744 69 735 q 72 716 79 713 q 98 707 189 787 q 202 798 215 808 q 228 818 241 826 q 254 834 266 840 q 278 847 290 852 q 301 856 311 858 q 321 861 330 862 q 360 864 375 855 q 390 846 396 822 q 401 797 392 755 q 383 706 359 621 q 335 536 321 470 q 331 475 340 480 q 348 484 356 488 q 363 491 368 494 q 377 499 383 502 q 389 505 391 506 q 393 506 395 507 q 397 508 399 509 q 401 510 405 512 q 409 515 416 520 q 426 555 436 586 q 447 617 454 634 q 460 652 473 678 q 486 703 489 709 q 492 715 508 742 q 525 768 525 770 q 555 819 596 842 q 638 866 685 857 q 718 851 724 809 q 729 783 723 756 q 717 729 697 695 q 677 661 634 620 q 592 578 527 533 q 468 352 460 195 q 456 98 479 103 q 481 104 482 104 q 507 117 558 190 q 610 263 648 341 q 652 349 660 352 q 669 355 678 351 q 686 347 689 338 q 692 330 688 322 z m 611 746 q 603 732 592 716 q 582 700 576 691 q 571 682 562 664 q 554 647 545 622 q 634 696 660 733 q 686 770 681 803 q 680 814 676 814 q 676 814 675 814 q 656 807 644 796 q 633 784 611 746 z m 172 261 q 181 304 191 349 q -12 221 13 95 q 18 73 32 64 q 45 55 61 55 q 72 56 76 56 q 81 57 96 68 q 110 78 120 98 q 130 117 145 159 q 160 201 172 261 z"},"4":{"x_min":0,"x_max":368,"ha":368,"o":"m 264 553 q 280 552 295 542 q 310 532 309 519 q 309 477 258 6 q 256 -5 248 -14 q 239 -24 220 -23 q 208 -23 196 -16 q 185 -8 185 4 q 184 38 192 128 q 200 219 200 254 q 114 246 92 245 q 90 245 81 244 q 72 244 68 244 q 63 244 56 247 q 50 250 46 257 q 40 270 44 286 q 49 303 58 317 q 59 318 88 362 q 116 406 132 430 q 149 455 174 490 q 199 524 215 541 q 229 555 264 553 z m 207 290 q 219 398 230 456 q 217 437 202 414 q 186 390 177 377 q 168 364 146 332 q 125 299 114 283 q 124 284 159 286 q 194 287 207 290 z"},"~":{"x_min":0,"x_max":456,"ha":456,"o":"m 324 282 q 338 296 356 290 q 373 284 378 268 q 382 252 370 236 q 338 202 294 188 q 249 174 206 188 q 194 192 180 200 q 165 208 150 216 q 135 224 124 229 q 113 234 96 234 q 80 233 77 224 q 72 211 61 204 q 50 197 37 201 q 29 203 22 210 q 16 216 14 224 q 11 232 14 241 q 32 290 82 298 q 124 304 180 274 q 182 272 190 268 q 199 263 202 262 q 204 260 212 256 q 221 252 224 252 q 226 251 235 248 q 244 245 247 246 q 250 247 260 247 q 295 251 324 282 z"},"D":{"x_min":0,"x_max":806,"ha":806,"o":"m 799 352 q 805 338 798 328 q 792 317 776 317 q 748 316 718 315 q 661 195 561 118 q 461 40 330 34 q 289 32 258 62 q 227 91 222 135 q 216 179 240 229 q 270 285 349 312 q 428 340 566 353 q 625 460 632 568 q 640 677 588 728 q 549 765 496 770 q 443 776 411 746 q 384 721 360 681 q 335 641 315 594 q 295 548 278 494 q 260 441 247 387 q 234 333 223 282 q 212 230 204 185 q 196 140 191 106 q 186 73 183 52 q 180 32 180 31 q 178 24 172 16 q 167 8 152 0 q 138 -7 119 -5 q 89 -1 80 18 q 70 37 74 59 q 80 90 100 247 q 121 404 138 545 l 155 686 q 122 661 75 643 q 22 622 -7 648 q -24 664 -27 696 q -30 728 -26 747 q -23 766 -18 782 q -15 791 -8 795 q 0 799 9 796 q 15 795 19 790 q 23 786 24 780 q 25 775 24 769 q 16 744 15 718 q 14 692 23 680 q 31 673 59 684 q 127 710 201 778 q 230 806 264 791 q 285 780 278 766 l 247 623 q 250 629 256 640 q 279 680 290 698 q 302 715 323 738 q 344 762 381 797 q 424 836 494 848 q 565 859 634 831 q 706 800 742 724 q 779 649 777 554 q 775 460 739 364 q 740 364 742 364 q 744 365 745 365 q 793 367 799 352 z m 357 154 q 457 195 531 298 q 341 269 311 206 q 297 178 322 159 q 339 147 357 154 z"},"^":{"x_min":0,"x_max":376,"ha":376,"o":"m 302 394 q 307 386 304 376 q 301 367 293 362 q 285 357 276 360 q 267 363 262 370 q 256 378 245 397 q 241 404 214 453 q 190 418 156 371 q 146 357 131 352 q 116 347 99 356 q 84 364 79 381 q 74 400 84 413 q 85 416 88 420 q 92 425 93 427 q 99 435 123 469 q 147 503 160 522 q 171 536 186 541 q 201 546 218 537 q 232 529 237 512 q 237 511 238 507 q 256 474 269 449 q 293 407 302 394 z"},"0":{"x_min":0,"x_max":456,"ha":456,"o":"m 348 529 q 377 516 393 470 q 409 425 410 364 q 412 304 399 236 q 386 167 362 108 q 337 50 294 8 q 252 -34 200 -41 q 152 -45 110 -16 q 68 14 59 58 q 43 124 52 220 q 62 316 97 398 q 139 494 206 528 q 272 562 348 529 z m 209 33 q 231 35 258 68 q 284 100 306 150 q 328 200 339 269 q 350 338 342 405 q 340 427 322 455 q 304 483 287 481 q 250 476 218 410 q 187 345 172 268 q 157 190 160 136 q 161 112 168 88 q 174 64 185 48 q 196 32 209 33 z"},"F":{"x_min":0,"x_max":464,"ha":464,"o":"m 518 530 q 517 528 514 524 q 512 521 504 512 q 497 504 488 497 q 479 490 464 484 q 449 478 433 477 q 409 369 381 287 q 353 205 328 158 q 304 112 275 80 q 246 48 226 36 q 207 25 183 16 q 72 -24 12 35 q -63 109 -16 234 q -13 240 -8 242 q -2 245 4 243 q 10 241 13 235 q 16 229 13 223 q 3 194 2 165 q 1 136 10 113 q 19 90 40 76 q 62 63 93 65 q 132 69 168 110 q 204 151 232 218 q 261 285 282 356 q 304 426 321 507 q 310 509 299 509 q 288 509 278 508 q 269 507 260 504 q 252 502 245 499 q 238 496 232 494 q 227 491 223 488 q 219 485 217 484 q 215 483 214 482 q 209 478 202 479 q 195 480 191 486 q 187 492 188 500 q 189 507 194 512 q 201 518 213 526 q 225 533 260 542 q 294 550 329 543 q 341 601 350 655 q 358 709 361 738 q 364 766 361 764 q 338 747 313 745 q 288 743 272 750 q 255 757 238 766 q 222 776 217 776 q 203 779 191 776 q 179 774 172 769 q 164 764 158 758 q 153 752 151 748 q 149 745 149 744 q 147 737 142 734 q 136 731 130 732 q 124 734 120 740 q 117 745 118 751 q 126 781 152 800 q 179 818 223 810 q 223 810 266 794 q 310 777 326 785 q 346 794 363 814 q 380 833 388 849 q 388 849 390 852 q 391 854 392 856 q 392 857 394 860 q 395 862 396 864 q 397 865 400 868 q 402 870 404 871 q 405 872 408 874 q 411 876 414 877 q 417 878 420 878 q 424 879 428 879 q 444 879 468 868 q 493 857 492 849 q 470 661 441 516 q 474 522 489 549 q 492 555 499 557 q 506 559 512 555 q 518 551 520 544 q 521 537 518 530 z"},"`":{"x_min":0,"x_max":285,"ha":285,"o":"m 219 473 q 225 460 222 448 q 220 437 207 429 q 196 421 182 425 q 168 429 162 440 q 140 488 113 532 q 106 544 110 557 q 113 570 125 577 q 136 584 149 580 q 162 576 169 565 q 197 521 219 473 z"},"k":{"x_min":0,"x_max":442,"ha":442,"o":"m 492 323 q 501 320 504 310 q 506 299 500 292 q 311 41 216 56 q 177 62 141 96 q 105 131 92 168 q 92 168 92 169 q 80 56 79 50 q 79 49 79 46 q 77 36 76 30 q 74 24 70 16 q 66 8 56 4 q 47 1 34 2 q 20 4 3 20 q -14 37 -15 72 q -26 394 55 600 q 75 650 98 692 q 122 733 146 761 q 169 789 192 810 q 215 831 236 844 q 258 856 275 862 q 292 869 306 871 q 330 875 343 856 q 351 844 352 824 q 353 804 346 776 q 338 747 328 718 q 318 690 297 648 q 276 606 259 572 q 242 538 212 486 q 182 433 162 398 q 141 362 107 303 q 105 294 103 273 q 146 328 200 375 q 253 422 292 432 q 306 436 320 437 q 333 438 348 436 q 363 433 372 425 q 380 417 384 402 q 387 386 379 361 q 367 321 299 270 q 231 220 157 191 q 157 186 163 173 q 169 160 178 146 q 188 132 201 120 q 214 109 226 107 q 242 106 264 116 q 285 125 306 140 q 326 155 350 178 q 373 201 390 220 q 407 239 426 262 q 446 285 453 294 q 460 303 467 312 q 478 328 492 323 z m 177 618 q 141 527 108 388 q 313 754 308 827 q 288 818 242 742 q 195 665 177 618 z m 118 222 q 163 244 206 274 q 250 303 280 333 q 309 363 314 382 q 315 387 313 389 q 311 390 307 390 q 304 390 301 390 q 284 386 258 368 q 233 351 208 326 q 183 302 159 274 q 135 247 118 222 z"},"u":{"x_min":0,"x_max":436,"ha":436,"o":"m 463 329 q 472 326 477 318 q 482 309 479 301 q 407 55 300 17 q 278 8 262 12 q 246 17 236 24 q 226 32 220 47 q 214 62 212 73 q 209 84 208 95 q 206 118 210 172 q 186 132 162 99 q 138 66 105 36 q 72 7 42 1 q 39 1 36 0 q 26 -1 19 0 q 12 2 3 9 q -6 16 -15 30 q -32 59 -34 108 q -37 158 -31 194 q -25 231 -12 286 q 0 342 1 351 q 11 408 66 415 q 89 418 102 398 q 115 378 112 337 q 111 310 86 206 q 62 102 63 93 q 66 77 104 116 q 142 155 182 222 q 223 290 229 343 q 230 353 232 360 q 234 366 240 376 q 245 387 258 393 q 272 399 293 399 q 304 399 312 396 q 320 393 324 386 q 329 379 332 372 q 335 365 336 355 q 337 345 337 340 q 337 334 336 325 q 336 316 336 316 q 336 291 328 244 q 320 197 310 148 q 301 98 299 77 q 313 89 326 102 q 338 116 349 132 q 360 149 368 163 q 376 177 385 197 q 394 217 400 230 q 406 244 415 267 q 424 290 430 302 q 444 335 463 329 z"},"]":{"x_min":0,"x_max":302,"ha":302,"o":"m 232 306 q 235 216 227 89 q 221 -3 113 4 q 66 7 65 52 q 72 56 72 56 q 102 60 114 62 q 127 63 142 70 q 156 76 159 80 q 162 84 166 100 q 171 116 171 128 q 171 140 171 172 q 171 187 172 256 q 173 326 171 341 q 167 472 156 492 q 152 498 136 500 q 121 501 105 501 q 89 501 76 508 q 64 516 65 533 q 66 548 89 556 q 112 563 137 562 q 162 561 180 560 q 192 558 200 547 q 209 536 214 516 q 220 497 224 477 q 227 457 228 430 q 230 402 230 383 q 231 364 232 339 q 232 314 232 306 z"},"U":{"x_min":0,"x_max":648,"ha":648,"o":"m 502 62 q 510 65 518 57 q 527 49 531 39 q 534 30 530 22 q 527 14 519 10 q 503 4 496 3 q 462 0 449 11 q 422 33 415 70 q 408 107 415 181 q 373 94 328 51 q 282 8 229 4 q 196 1 172 5 q 148 9 132 20 q 116 30 108 38 q 100 45 90 60 q 87 64 85 66 q 73 82 66 101 q 59 120 58 147 q 57 174 58 198 q 58 221 65 260 q 72 300 78 327 q 83 354 97 405 q 111 456 119 486 q 127 516 145 578 l 167 657 q 184 716 188 748 q 193 781 190 786 q 188 792 183 794 q 181 794 181 795 q 164 804 146 798 q 129 791 101 767 q 94 761 85 762 q 76 762 70 769 q 65 776 66 785 q 66 794 73 800 q 80 806 92 814 q 103 822 122 834 q 142 846 161 852 q 180 858 202 862 q 225 865 242 856 q 265 846 279 832 q 293 818 299 802 q 305 785 303 759 q 301 733 296 707 q 290 681 278 640 l 256 561 q 254 553 249 537 q 218 430 204 373 q 189 316 174 238 q 160 159 170 122 q 180 84 212 80 q 250 75 291 118 q 332 160 368 238 q 404 315 429 415 q 449 494 468 584 q 486 673 500 748 q 514 824 518 840 q 521 853 539 857 q 557 861 571 860 q 585 858 596 855 q 604 854 609 846 q 614 839 613 831 q 612 829 600 754 q 589 679 582 639 q 575 599 558 526 q 542 454 523 396 q 491 225 487 94 q 487 84 489 76 q 491 68 494 64 q 498 60 502 62 z"},"o":{"x_min":0,"x_max":305,"ha":305,"o":"m 361 292 q 348 261 321 244 q 294 227 262 222 q 251 118 194 58 q 137 -3 64 1 q 20 3 -16 50 q -51 97 -56 170 q -60 243 -8 332 q 11 363 38 385 q 65 407 92 418 q 118 428 144 432 q 170 436 190 433 q 209 430 219 424 q 220 423 221 422 q 222 422 222 422 l 223 421 q 227 418 231 413 q 240 403 244 392 q 252 377 255 361 q 264 314 264 267 q 307 277 321 309 q 325 317 334 320 q 342 324 350 320 q 358 317 362 308 q 365 300 361 292 z m 210 320 q 190 293 197 280 q 200 272 215 267 q 214 293 210 320 z m 89 84 q 119 79 156 113 q 194 147 209 203 q 211 211 213 223 q 172 231 157 261 q 138 301 181 355 q 182 356 185 358 q 186 359 186 359 q 155 364 120 331 q 86 298 75 242 q 71 223 68 202 q 65 180 64 152 q 63 124 69 105 q 75 86 89 84 z"},"N":{"x_min":0,"x_max":737,"ha":737,"o":"m 711 359 q 720 356 724 346 q 729 337 724 329 q 720 321 693 282 q 666 243 619 187 q 572 131 537 108 q 488 79 449 84 q 410 88 390 119 q 372 149 366 182 q 361 216 370 266 q 380 315 394 362 q 408 408 438 492 q 476 626 496 712 q 515 799 501 794 q 477 785 451 759 q 425 733 399 690 q 373 648 349 604 q 325 561 298 498 q 272 435 252 388 q 233 342 208 273 q 183 204 170 169 q 158 134 138 75 q 125 38 120 23 q 117 16 105 7 q 93 -2 86 -2 q 83 -2 80 -1 q 73 1 66 4 q 59 8 49 15 q 39 22 34 34 q 30 47 33 63 q 46 121 94 330 q 141 540 172 678 q 203 816 201 815 q 189 805 173 795 q 154 783 136 776 q 117 769 102 768 q 86 768 72 770 q 57 772 46 778 q 34 784 24 790 q 14 796 6 804 q -2 811 -8 816 q -13 822 -16 827 q -20 832 -20 832 q -26 838 -26 847 q -27 856 -20 862 q -14 869 -5 869 q 4 869 10 863 q 15 857 20 850 q 25 844 40 832 q 55 821 70 816 q 85 810 107 813 q 129 816 151 832 q 155 835 163 840 q 171 846 175 849 q 176 850 179 852 q 189 860 196 864 q 202 867 214 872 q 225 876 240 874 q 256 873 275 867 q 288 863 302 846 q 315 830 311 812 q 307 797 268 676 q 229 556 223 530 q 269 636 308 698 q 348 761 388 796 q 427 830 487 857 q 498 862 508 865 q 519 868 534 870 q 548 873 561 869 q 574 865 586 857 q 599 849 609 830 q 619 812 625 785 q 641 714 588 520 q 572 453 550 385 q 540 358 517 293 q 507 264 503 250 q 492 216 491 197 q 490 142 575 233 l 587 245 q 606 267 636 302 q 668 341 682 353 q 697 365 711 359 z"},"+":{"x_min":0,"x_max":368,"ha":368,"o":"m 291 337 q 304 336 314 327 q 323 318 323 304 q 324 296 319 288 q 314 280 306 276 q 299 271 291 272 q 272 272 220 273 q 221 222 222 201 q 222 192 218 184 q 213 177 206 173 q 198 169 189 168 q 182 168 176 170 q 170 173 166 178 q 162 183 160 189 q 157 195 156 201 q 155 221 154 272 q 104 271 84 270 q 75 269 68 274 q 60 279 56 286 q 52 294 52 303 q 51 316 61 325 q 71 334 84 335 q 102 336 154 337 q 154 390 155 407 q 155 421 164 430 q 174 439 187 440 q 200 441 210 430 q 220 420 220 407 q 219 389 219 338 q 272 338 291 337 z"},"G":{"x_min":0,"x_max":673,"ha":673,"o":"m 664 366 q 671 351 660 340 q 642 324 622 310 q 603 296 582 282 q 560 268 547 258 q 545 251 542 239 q 530 187 522 158 q 513 130 496 86 q 480 42 456 6 q 432 -31 400 -63 q 369 -93 334 -108 q 298 -122 268 -122 q 239 -121 222 -118 q 205 -115 196 -111 q 153 -92 153 -45 q 153 -29 158 -12 q 162 6 181 36 q 200 67 232 99 q 264 131 326 175 q 387 219 469 265 q 475 292 479 332 q 483 373 483 373 q 444 341 404 322 q 364 304 331 301 q 298 298 272 302 q 246 307 227 319 q 192 341 169 380 q 146 419 138 466 q 130 512 134 566 q 137 619 154 668 q 172 717 200 762 q 228 806 270 835 q 311 864 362 876 q 413 889 477 875 q 494 872 510 861 q 525 850 536 836 q 546 823 556 804 q 565 786 570 772 q 575 757 580 740 q 584 723 586 716 q 587 710 588 703 q 590 694 584 686 q 579 679 570 678 q 561 676 554 682 q 547 687 545 695 q 542 716 532 740 q 523 763 504 784 q 484 804 461 801 q 412 794 374 764 q 337 735 316 694 q 296 654 285 606 q 274 559 274 516 q 275 474 283 442 q 291 410 304 398 q 316 388 327 383 q 338 378 356 378 q 373 377 394 384 q 414 391 444 408 q 473 425 509 453 q 514 457 528 458 q 541 459 547 457 q 585 450 559 317 q 571 325 582 332 q 592 340 606 350 q 619 360 628 367 q 637 372 648 373 q 659 374 664 366 z m 329 -29 q 376 6 406 66 q 437 127 461 210 q 326 131 261 64 q 196 -2 196 -44 q 196 -53 202 -60 q 207 -66 218 -68 q 230 -71 245 -69 q 260 -67 282 -56 q 304 -46 329 -29 z"},"q":{"x_min":0,"x_max":465,"ha":465,"o":"m 504 323 q 513 323 516 314 q 519 306 516 290 q 513 273 504 248 q 468 150 420 85 q 371 20 325 -4 q 339 -50 346 -94 q 353 -139 352 -190 q 350 -242 336 -285 q 322 -328 288 -367 q 255 -406 204 -431 q 201 -434 184 -434 q 168 -433 159 -427 q 135 -409 130 -371 q 124 -333 138 -244 q 153 -154 193 16 q 193 19 194 25 q 196 31 197 34 q 149 -2 93 1 q 61 3 36 31 q 10 59 -3 104 q -16 148 -7 212 q 2 276 36 340 q 56 378 88 401 q 120 424 152 430 q 183 436 209 434 q 235 432 248 424 q 249 423 250 422 q 250 422 251 422 l 251 421 l 252 421 q 256 418 260 413 q 269 403 273 392 q 275 388 277 383 q 280 396 280 397 q 285 410 303 422 q 321 435 353 432 q 380 429 390 412 q 400 396 397 382 q 371 270 305 27 q 319 35 335 50 q 351 64 377 94 q 403 124 430 176 q 457 227 478 290 q 478 292 480 296 q 481 301 482 304 q 483 307 485 311 q 487 315 490 318 q 492 320 496 322 q 499 323 504 323 z m 126 86 q 156 87 186 114 q 217 141 234 191 q 235 199 238 212 q 241 225 242 229 q 245 258 243 283 q 241 308 238 325 l 235 342 q 232 349 229 359 q 199 379 166 354 q 132 329 108 254 q 100 227 96 199 q 92 171 92 145 q 92 119 100 102 q 109 86 126 86 z m 219 -373 q 259 -349 282 -307 q 304 -265 310 -224 q 316 -183 313 -136 q 310 -88 305 -62 q 300 -36 294 -15 q 207 -336 212 -368 q 214 -377 219 -373 z"},"d":{"x_min":0,"x_max":553,"ha":553,"o":"m 579 306 q 585 314 594 315 q 602 316 610 310 q 617 305 618 296 q 619 287 614 280 q 614 280 605 264 q 596 247 581 224 q 566 201 546 173 q 526 145 496 113 q 466 81 434 55 q 381 11 337 11 q 331 10 322 11 q 322 11 321 10 q 320 10 319 10 q 316 11 311 12 q 291 17 282 33 q 267 51 264 79 q 262 104 261 134 q 154 -11 61 1 q 33 4 8 34 q -16 64 -29 108 q -42 152 -32 212 q -22 273 16 331 q 43 373 82 398 q 121 422 156 426 q 191 429 220 418 q 250 408 263 387 q 268 378 273 367 q 290 475 338 595 q 366 668 403 722 q 440 777 476 806 q 511 834 538 848 q 566 862 589 866 q 612 870 625 851 q 633 840 634 824 q 636 807 630 783 q 623 759 616 738 q 609 716 591 680 q 573 643 560 618 q 548 592 521 546 q 494 499 478 472 q 463 445 431 391 q 421 374 416 364 q 410 355 402 340 q 393 326 385 314 q 364 177 359 123 q 358 113 358 108 q 356 86 365 85 q 381 83 422 118 q 439 133 456 148 q 472 164 486 178 q 499 193 511 207 q 523 221 532 234 q 541 246 549 257 q 557 268 562 277 q 568 286 572 292 q 575 299 577 302 q 579 306 579 306 z m 459 613 q 417 504 392 401 q 483 562 530 660 q 578 758 584 782 q 591 806 590 822 q 571 813 524 736 q 478 660 459 613 z m 86 76 q 106 65 158 101 q 210 137 259 206 q 259 234 261 261 q 260 266 260 270 q 257 296 248 316 q 239 335 226 344 q 213 354 197 351 q 170 347 142 316 q 115 286 96 239 q 77 194 74 138 q 72 83 86 76 z"},"1":{"x_min":0,"x_max":307,"ha":307,"o":"m 178 571 q 187 575 217 576 q 247 577 250 570 q 251 556 234 429 q 216 302 196 164 q 177 27 175 4 q 173 -11 139 -14 q 104 -16 106 9 q 108 49 165 486 q 143 477 116 467 q 89 457 82 454 q 76 452 71 454 q 66 456 61 464 q 56 471 54 477 q 51 483 46 495 q 45 498 45 499 q 43 504 48 510 q 53 517 64 524 q 75 530 88 536 q 102 542 117 548 q 132 554 144 558 q 155 563 166 567 q 176 571 178 571 z"},"5":{"x_min":0,"x_max":393,"ha":393,"o":"m 329 540 q 339 539 348 528 q 357 518 353 496 q 349 471 329 473 q 314 474 254 477 q 194 480 171 482 l 141 483 q 131 415 128 329 q 138 328 152 326 q 165 325 190 321 q 215 317 237 307 q 259 297 280 282 q 301 268 314 244 q 326 220 326 190 q 325 143 310 107 q 296 71 273 50 q 250 29 221 16 q 192 3 164 0 q 135 -2 110 2 q 84 6 67 16 q 63 18 63 28 q 63 39 67 51 q 70 59 74 64 q 79 70 82 69 q 128 60 158 62 q 189 65 208 81 q 228 97 237 118 q 246 139 248 166 q 251 197 234 221 q 218 245 192 257 q 166 269 142 274 q 117 280 100 279 q 87 278 83 296 q 79 314 80 330 q 81 345 84 380 q 86 414 88 436 q 89 459 91 486 q 93 513 96 530 q 98 547 101 552 q 105 562 329 540 z"}}}
